<svg width="205" height="134" viewBox="0 0 205 134" fill="none" xmlns="http://www.w3.org/2000/svg">
<g id="Isolation_Mode" clip-path="url(#clip0_4_2500)">
<g id="calendar">
<path id="Vector" d="M200.734 120.228L46.3509 111.651C43.5412 111.502 40.9281 109.347 40.5135 106.837L32.1935 16.9348C31.7707 14.4054 33.6488 12.3413 36.3898 12.3251L180.538 12.2926C183.291 12.3061 185.946 14.5596 186.467 17.3243L204.917 115.581C205.429 118.326 203.557 120.405 200.735 120.228H200.734Z" fill="url(#paint0_linear_4_2500)"/>
<path id="Vector_2" d="M155.077 133.988L4.3027 124.318C1.55629 124.15 -0.150782 121.721 0.490045 118.891L29.9937 17.5272C30.6358 14.6746 33.3822 12.3467 36.1286 12.3305L180.29 12.2939C183.037 12.3102 184.744 14.8504 184.103 17.9668L161.212 128.752C160.57 131.847 157.824 134.191 155.077 133.991V133.988Z" fill="url(#paint1_linear_4_2500)"/>
<path id="Vector_3" d="M147.39 120.334L12.3588 111.928C9.78607 111.782 8.1867 109.67 8.78848 107.21L30.2279 19.0882C30.8284 16.6088 33.4024 14.5853 35.9752 14.5704L171.007 14.538C173.579 14.5515 175.179 16.7603 174.577 19.4696L153.136 115.78C152.536 118.471 149.962 120.509 147.389 120.334H147.39Z" fill="url(#paint2_linear_4_2500)"/>
<g id="Group">
<path id="Vector_4" d="M147.39 120.334L12.3588 111.928C9.78607 111.782 8.1867 109.67 8.78848 107.21L30.2279 19.0882C30.8284 16.6088 33.4024 14.5853 35.9752 14.5704L171.007 14.538C173.579 14.5515 175.179 16.7603 174.577 19.4696L153.136 115.78C152.536 118.471 149.962 120.509 147.389 120.334H147.39Z" fill="url(#paint3_linear_4_2500)"/>
</g>
<g id="Clip path group">
<mask id="mask0_4_2500" style="mask-type:luminance" maskUnits="userSpaceOnUse" x="-1" y="7" width="170" height="103">
<g id="clippath">
<path id="Vector_5" d="M141.37 109.064L4.25827 102.656C0.997589 102.427 -0.978743 98.9332 0.495428 96.0021C0.611208 95.7708 0.696023 95.6031 0.739104 95.526C7.82051 82.6734 13.7064 68.9294 18.1612 54.9582C22.5286 41.2589 26.5943 26.9941 26.7087 12.4805C26.7289 9.92542 28.8251 7.88026 31.3669 7.92895L164.049 9.74958C166.701 9.80098 168.757 12.0991 168.517 14.7543C167.265 28.6037 165.119 42.9158 161.937 56.4555C158.901 69.3731 154.513 81.9213 150.341 94.498C149.034 98.4409 147.506 102.361 145.917 106.227C145.165 108.057 143.335 109.202 141.368 109.064H141.37Z" fill="white"/>
</g>
</mask>
<g mask="url(#mask0_4_2500)">
<g id="Group_2">
<path id="Vector_6" d="M141.37 109.064L4.25827 102.656C0.997589 102.427 -0.978743 98.9332 0.495428 96.0021C0.611208 95.7708 0.696023 95.6031 0.739104 95.526C7.82051 82.6734 13.7064 68.9294 18.1612 54.9582C22.5286 41.2589 26.5943 26.9941 26.7087 12.4805C26.7289 9.92542 28.8251 7.88026 31.3669 7.92895L164.049 9.74958C166.701 9.80098 168.757 12.0991 168.517 14.7543C167.265 28.6037 165.119 42.9158 161.937 56.4555C158.901 69.3731 154.513 81.9213 150.341 94.498C149.034 98.4409 147.506 102.361 145.917 106.227C145.165 108.057 143.335 109.202 141.368 109.064H141.37Z" fill="url(#paint4_radial_4_2500)"/>
<g id="Group_3">
<path id="Vector_7" d="M141.37 109.064L4.25827 102.656C0.997589 102.427 -0.978743 98.9332 0.495428 96.0021C0.611208 95.7708 0.696023 95.6031 0.739104 95.526C7.82051 82.6734 13.7064 68.9294 18.1612 54.9582C22.5286 41.2589 26.5943 26.9941 26.7087 12.4805C26.7289 9.92542 28.8251 7.88026 31.3669 7.92895L164.049 9.74958C166.701 9.80098 168.757 12.0991 168.517 14.7543C167.265 28.6037 165.119 42.9158 161.937 56.4555C158.901 69.3731 154.513 81.9213 150.341 94.498C149.034 98.4409 147.506 102.361 145.917 106.227C145.165 108.057 143.335 109.202 141.368 109.064H141.37Z" fill="url(#paint5_linear_4_2500)"/>
</g>
</g>
</g>
</g>
<path id="Vector_8" d="M56.4439 43.5326C52.8265 43.4163 49.2077 43.2986 45.5903 43.1823C43.863 43.1268 42.7133 41.8391 42.9946 40.308C43.5857 37.1023 44.0892 33.9033 44.5052 30.7125C44.7044 29.1881 46.2486 28.0005 47.9812 28.0559C51.6095 28.1723 55.2377 28.2886 58.8645 28.4036C60.5972 28.459 61.8587 29.7372 61.654 31.2617C61.2272 34.4538 60.713 37.6541 60.1125 40.8598C59.8258 42.391 58.1712 43.5881 56.4439 43.5313V43.5326ZM87.6667 41.7499C88.2833 38.5428 88.8124 35.3412 89.2554 32.1476C89.4667 30.6232 88.212 29.3436 86.4807 29.2882C82.8538 29.1719 79.2256 29.0555 75.5987 28.9392C73.8661 28.8837 72.3165 30.0727 72.1092 31.5971C71.6757 34.7893 71.156 37.9909 70.5502 41.1966C70.2608 42.7278 71.4037 44.0155 73.1324 44.071C76.7498 44.1873 80.3672 44.305 83.9847 44.4213C85.712 44.4767 87.3733 43.2797 87.6667 41.7485V41.7499ZM115.216 42.6385C115.848 39.4301 116.394 36.2285 116.853 33.0322C117.072 31.5065 115.824 30.2269 114.093 30.1714C110.466 30.0551 106.839 29.9388 103.212 29.8225C101.48 29.767 99.9246 30.956 99.7092 32.4817C99.2609 35.6766 98.7251 38.8783 98.1017 42.0853C97.8042 43.6165 98.9418 44.9055 100.669 44.961C104.287 45.0773 107.903 45.195 111.52 45.3113C113.246 45.3668 114.914 44.1697 115.216 42.6372V42.6385ZM142.76 43.5286C143.409 40.3201 143.971 37.1158 144.446 33.9196C144.673 32.3938 143.431 31.1129 141.7 31.0574C138.074 30.9411 134.447 30.8248 130.82 30.7084C129.088 30.653 127.527 31.8433 127.304 33.369C126.839 36.5653 126.287 39.7683 125.648 42.9767C125.344 44.5079 126.473 45.7969 128.2 45.8524C131.817 45.9687 135.433 46.0864 139.049 46.2027C140.775 46.2581 142.448 45.0611 142.758 43.5286H142.76ZM50.4665 65.5046C46.8611 65.3883 43.2558 65.2706 39.6505 65.1543C37.9286 65.0988 36.9189 63.8111 37.3659 62.2799C38.3042 59.0742 39.1551 55.8753 39.9184 52.6844C40.2832 51.16 41.9553 49.9724 43.6826 50.0279C47.2987 50.1442 50.9134 50.2606 54.5282 50.3755C56.2541 50.431 57.3769 51.7092 57.0067 53.2336C56.2339 56.4258 55.3723 59.6261 54.4232 62.8318C53.9708 64.363 52.1857 65.56 50.4638 65.5032L50.4665 65.5046ZM81.8831 63.7218C82.8484 60.5148 83.7249 57.3131 84.5151 54.1196C84.8921 52.5952 83.776 51.3156 82.0501 51.2601C78.4353 51.1438 74.8206 51.0275 71.2058 50.9112C69.4786 50.8557 67.8011 52.0447 67.4282 53.5691C66.6487 56.7612 65.7817 59.9629 64.8272 63.1686C64.3721 64.6998 65.3751 65.9875 67.097 66.0429C70.7023 66.1593 74.3063 66.2769 77.9116 66.3933C79.6322 66.4487 81.4241 65.2516 81.8845 63.7205L81.8831 63.7218ZM109.336 64.6105C110.318 61.4021 111.21 58.2004 112.017 55.0042C112.402 53.4784 111.293 52.1989 109.567 52.1434C105.953 52.0271 102.338 51.9108 98.7237 51.7944C96.9978 51.739 95.3123 52.9279 94.9326 54.4537C94.137 57.6486 93.2538 60.8502 92.2831 64.0573C91.82 65.5884 92.8162 66.8775 94.5381 66.9329C98.1421 67.0493 101.746 67.167 105.35 67.2833C107.071 67.3387 108.868 66.1417 109.336 64.6091V64.6105ZM136.784 65.5005C137.782 62.2921 138.691 59.0877 139.513 55.8915C139.906 54.3658 138.804 53.0848 137.078 53.0294C133.464 52.913 129.851 52.7967 126.238 52.6804C124.512 52.6249 122.821 53.8152 122.433 55.341C121.621 58.5372 120.722 61.7402 119.734 64.9487C119.262 66.4798 120.253 67.7689 121.974 67.8243C125.578 67.9407 129.18 68.0583 132.784 68.1747C134.505 68.2301 136.308 67.033 136.784 65.5005ZM42.4938 87.1222C38.9006 87.0058 35.3074 86.8882 31.7142 86.7718C29.9977 86.7164 29.1226 85.4287 29.7284 83.8975C31.0007 80.6918 32.1841 77.4929 33.2799 74.302C33.8036 72.7776 35.5996 71.59 37.3201 71.6455C40.9241 71.7618 44.5267 71.8781 48.1293 71.9931C49.8499 72.0486 50.8394 73.3268 50.3116 74.8512C49.2064 78.0434 48.0122 81.2437 46.7306 84.4494C46.118 85.9805 44.209 87.1776 42.4938 87.1208V87.1222ZM74.0949 85.3394C75.3928 82.1323 76.6031 78.9307 77.7259 75.7372C78.2617 74.2127 77.2789 72.9332 75.5583 72.8777C71.9557 72.7614 68.3531 72.6451 64.7505 72.5287C63.0299 72.4733 61.2273 73.6622 60.6968 75.1866C59.5848 78.3788 58.3853 81.5805 57.0969 84.7862C56.483 86.3173 57.3513 87.605 59.0678 87.6605C62.661 87.7768 66.2529 87.8945 69.8461 88.0108C71.5613 88.0663 73.477 86.8692 74.0963 85.338L74.0949 85.3394ZM101.455 86.2281C102.769 83.0197 103.997 79.818 105.135 76.6218C105.679 75.096 104.703 73.8164 102.982 73.761C99.3793 73.6446 95.7781 73.5283 92.1754 73.412C90.4549 73.3565 88.6468 74.5455 88.1083 76.0713C86.9802 79.2661 85.7645 82.4678 84.4599 85.6749C83.8379 87.206 84.7009 88.4951 86.4161 88.5505C90.0079 88.6668 93.5998 88.7845 97.1916 88.9008C98.9068 88.9563 100.828 87.7592 101.455 86.2267V86.2281ZM128.812 87.1181C130.143 83.9097 131.386 80.7053 132.539 77.5091C133.091 75.9833 132.121 74.7024 130.402 74.6469C126.8 74.5306 123.199 74.4143 119.598 74.298C117.877 74.2425 116.062 75.4328 115.516 76.9586C114.371 80.1548 113.138 83.3578 111.818 86.5662C111.188 88.0974 112.044 89.3864 113.759 89.4419C117.351 89.5582 120.941 89.6759 124.533 89.7922C126.247 89.8477 128.175 88.6506 128.81 87.1181H128.812Z" fill="url(#paint6_linear_4_2500)"/>
<g id="Group_4">
<path id="Vector_9" d="M46.3603 10.0013C46.7427 9.44534 47.0698 8.84477 47.4387 8.24015C47.576 8.01426 47.7147 7.78703 47.8008 7.53679C47.852 7.38665 47.8857 7.22704 47.9745 7.09448C48.2101 6.7401 48.7177 6.72792 49.139 6.77391C50.8205 6.95516 51.3038 7.902 51.2365 9.51297C51.1208 12.3061 50.0316 14.9911 48.0472 16.9389C46.4626 18.493 44.5038 19.3262 42.2838 19.3019C41.8651 19.2978 41.4357 19.2627 41.0547 19.0909C40.2886 18.746 39.8403 17.8749 39.8403 17.0322C39.8403 13.9942 43.14 12.8905 45.0921 11.3877C45.6131 10.986 46.0116 10.5139 46.3644 10.0026L46.3603 10.0013Z" fill="url(#paint7_radial_4_2500)"/>
</g>
<path id="Vector_10" d="M51.0117 7.17698C50.9175 6.74549 50.8111 6.31671 50.6859 5.89334C50.457 5.11153 50.173 4.34324 49.8122 3.61012C49.2104 2.39953 48.3649 1.23898 47.1708 0.566725C46.4155 0.143355 45.5553 -0.0419537 44.6936 0.00674064C41.3858 0.19746 39.3139 3.52896 38.6798 8.02778C38.4981 9.30871 38.4321 10.687 38.49 12.114C38.5398 13.3436 38.6933 14.569 38.9666 15.7688C39.2964 17.2283 39.7892 19.8821 41.8624 19.4926C43.0862 19.2626 43.1091 17.7071 42.6742 16.7833C42.3 15.9852 41.8288 15.3657 41.6362 14.4825C41.4599 13.6641 41.4303 12.8174 41.4612 11.9801C41.511 10.6803 41.6511 9.31547 41.8988 8.07106C42.3929 5.5633 43.3164 3.54249 44.7906 3.49785C45.741 3.46945 46.3576 4.18228 46.7131 4.99385C46.9446 5.51731 47.09 6.07865 47.2017 6.63864C47.296 7.10394 47.3 7.58547 47.4077 8.04807C47.4158 8.08188 47.4239 8.1157 47.4333 8.14681L51.2662 8.19956C51.2662 7.87223 51.0683 7.43398 51.0117 7.17427V7.17698Z" fill="url(#paint8_radial_4_2500)"/>
<g id="Group_5">
<path id="Vector_11" d="M51.0117 7.17698C50.9175 6.74549 50.8111 6.31671 50.6859 5.89334C50.457 5.11153 50.173 4.34324 49.8122 3.61012C49.2104 2.39953 48.3649 1.23898 47.1708 0.566725C46.4155 0.143355 45.5553 -0.0419537 44.6936 0.00674064C41.3858 0.19746 39.3139 3.52896 38.6798 8.02778C38.4981 9.30871 38.4321 10.687 38.49 12.114C38.5398 13.3436 38.6933 14.569 38.9666 15.7688C39.2964 17.2283 39.7892 19.8821 41.8624 19.4926C43.0862 19.2626 43.1091 17.7071 42.6742 16.7833C42.3 15.9852 41.8288 15.3657 41.6362 14.4825C41.4599 13.6641 41.4303 12.8174 41.4612 11.9801C41.511 10.6803 41.6511 9.31547 41.8988 8.07106C42.3929 5.5633 43.3164 3.54249 44.7906 3.49785C45.741 3.46945 46.3576 4.18228 46.7131 4.99385C46.9446 5.51731 47.09 6.07865 47.2017 6.63864C47.296 7.10394 47.3 7.58547 47.4077 8.04807C47.4158 8.08188 47.4239 8.1157 47.4333 8.14681L51.2662 8.19956C51.2662 7.87223 51.0683 7.43398 51.0117 7.17427V7.17698Z" fill="url(#paint9_radial_4_2500)"/>
</g>
<g id="Group_6">
<path id="Vector_12" d="M51.0117 7.17698C50.9175 6.74549 50.8111 6.31671 50.6859 5.89334C50.457 5.11153 50.173 4.34324 49.8122 3.61012C49.2104 2.39953 48.3649 1.23898 47.1708 0.566725C46.4155 0.143355 45.5553 -0.0419537 44.6936 0.00674064C41.3858 0.19746 39.3139 3.52896 38.6798 8.02778C38.4981 9.30871 38.4321 10.687 38.49 12.114C38.5398 13.3436 38.6933 14.569 38.9666 15.7688C39.2964 17.2283 39.7892 19.8821 41.8624 19.4926C43.0862 19.2626 43.1091 17.7071 42.6742 16.7833C42.3 15.9852 41.8288 15.3657 41.6362 14.4825C41.4599 13.6641 41.4303 12.8174 41.4612 11.9801C41.511 10.6803 41.6511 9.31547 41.8988 8.07106C42.3929 5.5633 43.3164 3.54249 44.7906 3.49785C45.741 3.46945 46.3576 4.18228 46.7131 4.99385C46.9446 5.51731 47.09 6.07865 47.2017 6.63864C47.296 7.10394 47.3 7.58547 47.4077 8.04807C47.4158 8.08188 47.4239 8.1157 47.4333 8.14681L51.2662 8.19956C51.2662 7.87223 51.0683 7.43398 51.0117 7.17427V7.17698Z" fill="url(#paint10_radial_4_2500)"/>
</g>
<g id="Group_7">
<path id="Vector_13" d="M73.1835 10.3299C73.5658 9.77395 73.893 9.17339 74.2619 8.56877C74.3992 8.34288 74.5379 8.11564 74.624 7.8654C74.6752 7.71526 74.7088 7.55565 74.7977 7.4231C75.0333 7.06871 75.5408 7.05654 75.9622 7.10253C77.6437 7.28378 78.127 8.23061 78.0597 9.84158C77.9439 12.6347 76.8548 15.3197 74.8704 17.2675C73.2858 18.8216 71.327 19.6548 69.107 19.6305C68.6883 19.6264 68.2588 19.5913 67.8778 19.4195C67.1118 19.0746 66.6635 18.2035 66.6635 17.3608C66.6635 14.3228 69.9632 13.2191 71.9153 11.7163C72.4363 11.3146 72.8348 10.8425 73.1875 10.3312L73.1835 10.3299Z" fill="url(#paint11_radial_4_2500)"/>
</g>
<path id="Vector_14" d="M77.8335 7.50559C77.7393 7.07411 77.6329 6.64533 77.5077 6.22196C77.2789 5.44014 76.9948 4.67185 76.634 3.93873C76.0322 2.72814 75.1868 1.56759 73.9926 0.895339C73.2374 0.471969 72.3771 0.28666 71.5155 0.335354C68.2077 0.526073 66.1358 3.85758 65.5017 8.35639C65.3199 9.63732 65.254 11.0156 65.3118 12.4427C65.3617 13.6722 65.5151 14.8977 65.7884 16.0974C66.1183 17.5569 66.611 20.2108 68.6843 19.8212C69.908 19.5913 69.9309 18.0357 69.4961 17.1119C69.1218 16.3139 68.6506 15.6944 68.4581 14.8111C68.2817 13.9928 68.2521 13.146 68.2831 12.3087C68.3329 11.0089 68.4729 9.64408 68.7206 8.39967C69.2147 5.89192 70.1382 3.8711 71.6124 3.82647C72.5629 3.79806 73.1795 4.51089 73.5349 5.32246C73.7665 5.84593 73.9119 6.40727 74.0236 6.96725C74.1178 7.43255 74.1219 7.91408 74.2296 8.37668C74.2376 8.4105 74.2457 8.44431 74.2551 8.47542L78.088 8.52817C78.088 8.20084 77.8901 7.76259 77.8335 7.50289V7.50559Z" fill="url(#paint12_radial_4_2500)"/>
<g id="Group_8">
<path id="Vector_15" d="M77.8335 7.50559C77.7393 7.07411 77.6329 6.64533 77.5077 6.22196C77.2789 5.44014 76.9948 4.67185 76.634 3.93873C76.0322 2.72814 75.1868 1.56759 73.9926 0.895339C73.2374 0.471969 72.3771 0.28666 71.5155 0.335354C68.2077 0.526073 66.1358 3.85758 65.5017 8.35639C65.3199 9.63732 65.254 11.0156 65.3118 12.4427C65.3617 13.6722 65.5151 14.8977 65.7884 16.0974C66.1183 17.5569 66.611 20.2108 68.6843 19.8212C69.908 19.5913 69.9309 18.0357 69.4961 17.1119C69.1218 16.3139 68.6506 15.6944 68.4581 14.8111C68.2817 13.9928 68.2521 13.146 68.2831 12.3087C68.3329 11.0089 68.4729 9.64408 68.7206 8.39967C69.2147 5.89192 70.1382 3.8711 71.6124 3.82647C72.5629 3.79806 73.1795 4.51089 73.5349 5.32246C73.7665 5.84593 73.9119 6.40727 74.0236 6.96725C74.1178 7.43255 74.1219 7.91408 74.2296 8.37668C74.2376 8.4105 74.2457 8.44431 74.2551 8.47542L78.088 8.52817C78.088 8.20084 77.8901 7.76259 77.8335 7.50289V7.50559Z" fill="url(#paint13_radial_4_2500)"/>
</g>
<g id="Group_9">
<path id="Vector_16" d="M77.8335 7.50559C77.7393 7.07411 77.6329 6.64533 77.5077 6.22196C77.2789 5.44014 76.9948 4.67185 76.634 3.93873C76.0322 2.72814 75.1868 1.56759 73.9926 0.895339C73.2374 0.471969 72.3771 0.28666 71.5155 0.335354C68.2077 0.526073 66.1358 3.85758 65.5017 8.35639C65.3199 9.63732 65.254 11.0156 65.3118 12.4427C65.3617 13.6722 65.5151 14.8977 65.7884 16.0974C66.1183 17.5569 66.611 20.2108 68.6843 19.8212C69.908 19.5913 69.9309 18.0357 69.4961 17.1119C69.1218 16.3139 68.6506 15.6944 68.4581 14.8111C68.2817 13.9928 68.2521 13.146 68.2831 12.3087C68.3329 11.0089 68.4729 9.64408 68.7206 8.39967C69.2147 5.89192 70.1382 3.8711 71.6124 3.82647C72.5629 3.79806 73.1795 4.51089 73.5349 5.32246C73.7665 5.84593 73.9119 6.40727 74.0236 6.96725C74.1178 7.43255 74.1219 7.91408 74.2296 8.37668C74.2376 8.4105 74.2457 8.44431 74.2551 8.47542L78.088 8.52817C78.088 8.20084 77.8901 7.76259 77.8335 7.50289V7.50559Z" fill="url(#paint14_radial_4_2500)"/>
</g>
<g id="Group_10">
<path id="Vector_17" d="M100.007 10.6586C100.389 10.1027 100.716 9.50212 101.085 8.8975C101.222 8.67161 101.361 8.44437 101.447 8.19414C101.498 8.044 101.532 7.88439 101.621 7.75183C101.856 7.39745 102.364 7.38527 102.785 7.43126C104.467 7.61251 104.95 8.55935 104.883 10.1703C104.767 12.9621 103.678 15.6484 101.694 17.5962C100.109 19.1504 98.1502 19.9836 95.9302 19.9592C95.5115 19.9552 95.082 19.92 94.701 19.7482C93.935 19.4033 93.4867 18.5322 93.4867 17.6895C93.4867 14.6515 96.7864 13.5478 98.7385 12.045C99.2595 11.6433 99.658 11.1713 100.011 10.66L100.007 10.6586Z" fill="url(#paint15_radial_4_2500)"/>
</g>
<path id="Vector_18" d="M104.657 7.83433C104.562 7.40284 104.456 6.97406 104.331 6.55069C104.102 5.76888 103.818 5.00059 103.457 4.26747C102.855 3.05687 102.01 1.89633 100.816 1.22407C100.061 0.800704 99.2003 0.615395 98.3387 0.664089C95.0309 0.854809 92.959 4.18631 92.3249 8.68513C92.1431 9.96606 92.0771 11.3444 92.135 12.7714C92.1848 14.0009 92.3383 15.2264 92.6116 16.4262C92.9414 17.8856 93.4342 20.5395 95.5074 20.1499C96.7312 19.92 96.7541 18.3645 96.3193 17.4406C95.945 16.6426 95.4738 16.0231 95.2813 15.1398C95.1049 14.3215 95.0753 13.4748 95.1063 12.6375C95.1561 11.3376 95.2961 9.97282 95.5438 8.72841C96.0379 6.22065 96.9614 4.19984 98.4356 4.1552C99.3861 4.1268 100.003 4.83963 100.358 5.6512C100.59 6.17466 100.735 6.736 100.847 7.29599C100.941 7.76129 100.945 8.24282 101.053 8.70542C101.061 8.73923 101.069 8.77305 101.078 8.80416L104.911 8.85691C104.911 8.52957 104.713 8.09133 104.657 7.83162V7.83433Z" fill="url(#paint16_radial_4_2500)"/>
<g id="Group_11">
<path id="Vector_19" d="M104.657 7.83433C104.562 7.40284 104.456 6.97406 104.331 6.55069C104.102 5.76888 103.818 5.00059 103.457 4.26747C102.855 3.05687 102.01 1.89633 100.816 1.22407C100.061 0.800704 99.2003 0.615395 98.3387 0.664089C95.0309 0.854809 92.959 4.18631 92.3249 8.68513C92.1431 9.96606 92.0771 11.3444 92.135 12.7714C92.1848 14.0009 92.3383 15.2264 92.6116 16.4262C92.9414 17.8856 93.4342 20.5395 95.5074 20.1499C96.7312 19.92 96.7541 18.3645 96.3193 17.4406C95.945 16.6426 95.4738 16.0231 95.2813 15.1398C95.1049 14.3215 95.0753 13.4748 95.1063 12.6375C95.1561 11.3376 95.2961 9.97282 95.5438 8.72841C96.0379 6.22065 96.9614 4.19984 98.4356 4.1552C99.3861 4.1268 100.003 4.83963 100.358 5.6512C100.59 6.17466 100.735 6.736 100.847 7.29599C100.941 7.76129 100.945 8.24282 101.053 8.70542C101.061 8.73923 101.069 8.77305 101.078 8.80416L104.911 8.85691C104.911 8.52957 104.713 8.09133 104.657 7.83162V7.83433Z" fill="url(#paint17_radial_4_2500)"/>
</g>
<g id="Group_12">
<path id="Vector_20" d="M104.657 7.83433C104.562 7.40284 104.456 6.97406 104.331 6.55069C104.102 5.76888 103.818 5.00059 103.457 4.26747C102.855 3.05687 102.01 1.89633 100.816 1.22407C100.061 0.800704 99.2003 0.615395 98.3387 0.664089C95.0309 0.854809 92.959 4.18631 92.3249 8.68513C92.1431 9.96606 92.0771 11.3444 92.135 12.7714C92.1848 14.0009 92.3383 15.2264 92.6116 16.4262C92.9414 17.8856 93.4342 20.5395 95.5074 20.1499C96.7312 19.92 96.7541 18.3645 96.3193 17.4406C95.945 16.6426 95.4738 16.0231 95.2813 15.1398C95.1049 14.3215 95.0753 13.4748 95.1063 12.6375C95.1561 11.3376 95.2961 9.97282 95.5438 8.72841C96.0379 6.22065 96.9614 4.19984 98.4356 4.1552C99.3861 4.1268 100.003 4.83963 100.358 5.6512C100.59 6.17466 100.735 6.736 100.847 7.29599C100.941 7.76129 100.945 8.24282 101.053 8.70542C101.061 8.73923 101.069 8.77305 101.078 8.80416L104.911 8.85691C104.911 8.52957 104.713 8.09133 104.657 7.83162V7.83433Z" fill="url(#paint18_radial_4_2500)"/>
</g>
<g id="Group_13">
<path id="Vector_21" d="M126.829 11.059C127.211 10.5031 127.538 9.90251 127.907 9.29789C128.044 9.072 128.183 8.84476 128.269 8.59453C128.32 8.44439 128.354 8.28478 128.443 8.15222C128.678 7.79784 129.186 7.78566 129.607 7.83165C131.289 8.0129 131.772 8.95974 131.705 10.5707C131.589 13.3639 130.5 16.0488 128.515 17.9966C126.931 19.5508 124.972 20.384 122.752 20.3596C122.333 20.3542 121.904 20.3204 121.523 20.1486C120.757 19.8037 120.309 18.9326 120.309 18.0899C120.309 15.0519 123.608 13.9482 125.56 12.4454C126.081 12.0437 126.48 11.5716 126.833 11.0604L126.829 11.059Z" fill="url(#paint19_radial_4_2500)"/>
</g>
<path id="Vector_22" d="M131.48 8.23472C131.386 7.80323 131.279 7.37445 131.154 6.95108C130.925 6.16927 130.641 5.40098 130.28 4.66786C129.679 3.45726 128.833 2.29672 127.639 1.62446C126.884 1.20109 126.023 1.01579 125.162 1.06448C121.854 1.2552 119.782 4.5867 119.148 9.08552C118.966 10.3664 118.9 11.7448 118.958 13.1718C119.008 14.4013 119.162 15.6268 119.435 16.8266C119.765 18.286 120.257 20.9399 122.331 20.5503C123.554 20.3204 123.577 18.7649 123.142 17.841C122.768 17.043 122.297 16.4235 122.104 15.5402C121.928 14.7219 121.898 13.8751 121.929 13.0379C121.979 11.738 122.119 10.3732 122.367 9.1288C122.861 6.62104 123.785 4.60023 125.259 4.55559C126.209 4.52719 126.826 5.24002 127.181 6.05159C127.413 6.57505 127.558 7.13639 127.67 7.69638C127.764 8.16168 127.768 8.64321 127.876 9.10581C127.884 9.13962 127.892 9.17344 127.902 9.20455L131.734 9.2573C131.734 8.92997 131.536 8.49172 131.48 8.23201V8.23472Z" fill="url(#paint20_radial_4_2500)"/>
<g id="Group_14">
<path id="Vector_23" d="M131.48 8.23472C131.386 7.80323 131.279 7.37445 131.154 6.95108C130.925 6.16927 130.641 5.40098 130.28 4.66786C129.679 3.45726 128.833 2.29672 127.639 1.62446C126.884 1.20109 126.023 1.01579 125.162 1.06448C121.854 1.2552 119.782 4.5867 119.148 9.08552C118.966 10.3664 118.9 11.7448 118.958 13.1718C119.008 14.4013 119.162 15.6268 119.435 16.8266C119.765 18.286 120.257 20.9399 122.331 20.5503C123.554 20.3204 123.577 18.7649 123.142 17.841C122.768 17.043 122.297 16.4235 122.104 15.5402C121.928 14.7219 121.898 13.8751 121.929 13.0379C121.979 11.738 122.119 10.3732 122.367 9.1288C122.861 6.62104 123.785 4.60023 125.259 4.55559C126.209 4.52719 126.826 5.24002 127.181 6.05159C127.413 6.57505 127.558 7.13639 127.67 7.69638C127.764 8.16168 127.768 8.64321 127.876 9.10581C127.884 9.13962 127.892 9.17344 127.902 9.20455L131.734 9.2573C131.734 8.92997 131.536 8.49172 131.48 8.23201V8.23472Z" fill="url(#paint21_radial_4_2500)"/>
</g>
<g id="Group_15">
<path id="Vector_24" d="M131.48 8.23472C131.386 7.80323 131.279 7.37445 131.154 6.95108C130.925 6.16927 130.641 5.40098 130.28 4.66786C129.679 3.45726 128.833 2.29672 127.639 1.62446C126.884 1.20109 126.023 1.01579 125.162 1.06448C121.854 1.2552 119.782 4.5867 119.148 9.08552C118.966 10.3664 118.9 11.7448 118.958 13.1718C119.008 14.4013 119.162 15.6268 119.435 16.8266C119.765 18.286 120.257 20.9399 122.331 20.5503C123.554 20.3204 123.577 18.7649 123.142 17.841C122.768 17.043 122.297 16.4235 122.104 15.5402C121.928 14.7219 121.898 13.8751 121.929 13.0379C121.979 11.738 122.119 10.3732 122.367 9.1288C122.861 6.62104 123.785 4.60023 125.259 4.55559C126.209 4.52719 126.826 5.24002 127.181 6.05159C127.413 6.57505 127.558 7.13639 127.67 7.69638C127.764 8.16168 127.768 8.64321 127.876 9.10581C127.884 9.13962 127.892 9.17344 127.902 9.20455L131.734 9.2573C131.734 8.92997 131.536 8.49172 131.48 8.23201V8.23472Z" fill="url(#paint22_radial_4_2500)"/>
</g>
<g id="Group_16">
<path id="Vector_25" d="M153.652 11.485C154.034 10.9291 154.361 10.3285 154.73 9.72392C154.867 9.49803 155.006 9.27079 155.092 9.02056C155.143 8.87041 155.177 8.71081 155.266 8.57825C155.502 8.22386 156.009 8.21169 156.43 8.25768C158.112 8.43893 158.595 9.38576 158.528 10.9967C158.412 13.7899 157.323 16.4748 155.339 18.4226C153.754 19.9768 151.795 20.81 149.575 20.7856C149.157 20.7816 148.727 20.7464 148.346 20.5746C147.58 20.2297 147.132 19.3586 147.132 18.5159C147.132 15.478 150.431 14.3742 152.384 12.8715C152.905 12.4697 153.303 11.9977 153.656 11.4864L153.652 11.485Z" fill="url(#paint23_radial_4_2500)"/>
</g>
<path id="Vector_26" d="M158.303 8.66074C158.209 8.22926 158.103 7.80048 157.977 7.37711C157.748 6.59529 157.464 5.827 157.104 5.09388C156.502 3.88329 155.656 2.72274 154.462 2.05049C153.707 1.62712 152.847 1.44181 151.985 1.49051C148.677 1.68122 146.605 5.01273 145.971 9.51154C145.789 10.7925 145.724 12.1708 145.781 13.5978C145.831 14.8273 145.985 16.0528 146.258 17.2526C146.588 18.7121 147.081 21.3659 149.154 20.9763C150.378 20.7464 150.4 19.1909 149.966 18.2671C149.591 17.469 149.12 16.8495 148.928 15.9662C148.751 15.1479 148.722 14.3012 148.753 13.4639C148.802 12.164 148.942 10.7992 149.19 9.55483C149.684 7.04707 150.608 5.02625 152.082 4.98162C153.032 4.95321 153.649 5.66604 154.004 6.47762C154.236 7.00108 154.381 7.56242 154.493 8.1224C154.587 8.5877 154.591 9.06924 154.699 9.53183C154.707 9.56565 154.715 9.59946 154.725 9.63057L158.558 9.68332C158.558 9.35599 158.36 8.91774 158.303 8.65804V8.66074Z" fill="url(#paint24_radial_4_2500)"/>
<g id="Group_17">
<path id="Vector_27" d="M158.303 8.66074C158.209 8.22926 158.103 7.80048 157.977 7.37711C157.748 6.59529 157.464 5.827 157.104 5.09388C156.502 3.88329 155.656 2.72274 154.462 2.05049C153.707 1.62712 152.847 1.44181 151.985 1.49051C148.677 1.68122 146.605 5.01273 145.971 9.51154C145.789 10.7925 145.724 12.1708 145.781 13.5978C145.831 14.8273 145.985 16.0528 146.258 17.2526C146.588 18.7121 147.081 21.3659 149.154 20.9763C150.378 20.7464 150.4 19.1909 149.966 18.2671C149.591 17.469 149.12 16.8495 148.928 15.9662C148.751 15.1479 148.722 14.3012 148.753 13.4639C148.802 12.164 148.942 10.7992 149.19 9.55483C149.684 7.04707 150.608 5.02625 152.082 4.98162C153.032 4.95321 153.649 5.66604 154.004 6.47762C154.236 7.00108 154.381 7.56242 154.493 8.1224C154.587 8.5877 154.591 9.06924 154.699 9.53183C154.707 9.56565 154.715 9.59946 154.725 9.63057L158.558 9.68332C158.558 9.35599 158.36 8.91774 158.303 8.65804V8.66074Z" fill="url(#paint25_radial_4_2500)"/>
</g>
<g id="Group_18">
<path id="Vector_28" d="M158.303 8.66074C158.209 8.22926 158.103 7.80048 157.977 7.37711C157.748 6.59529 157.464 5.827 157.104 5.09388C156.502 3.88329 155.656 2.72274 154.462 2.05049C153.707 1.62712 152.847 1.44181 151.985 1.49051C148.677 1.68122 146.605 5.01273 145.971 9.51154C145.789 10.7925 145.724 12.1708 145.781 13.5978C145.831 14.8273 145.985 16.0528 146.258 17.2526C146.588 18.7121 147.081 21.3659 149.154 20.9763C150.378 20.7464 150.4 19.1909 149.966 18.2671C149.591 17.469 149.12 16.8495 148.928 15.9662C148.751 15.1479 148.722 14.3012 148.753 13.4639C148.802 12.164 148.942 10.7992 149.19 9.55483C149.684 7.04707 150.608 5.02625 152.082 4.98162C153.032 4.95321 153.649 5.66604 154.004 6.47762C154.236 7.00108 154.381 7.56242 154.493 8.1224C154.587 8.5877 154.591 9.06924 154.699 9.53183C154.707 9.56565 154.715 9.59946 154.725 9.63057L158.558 9.68332C158.558 9.35599 158.36 8.91774 158.303 8.65804V8.66074Z" fill="url(#paint26_radial_4_2500)"/>
</g>
<path id="Vector_29" d="M56.4439 43.5326C52.8265 43.4163 49.2077 43.2986 45.5903 43.1823C43.863 43.1268 42.7133 41.8391 42.9946 40.308C43.5857 37.1023 44.0892 33.9033 44.5052 30.7125C44.7044 29.1881 46.2486 28.0005 47.9812 28.0559C51.6095 28.1723 55.2377 28.2886 58.8645 28.4036C60.5972 28.459 61.8586 29.7372 61.654 31.2617C61.2272 34.4538 60.713 37.6541 60.1125 40.8598C59.8258 42.391 58.1712 43.5881 56.4439 43.5313V43.5326ZM109.336 64.6105C110.318 61.4021 111.21 58.2004 112.017 55.0042C112.402 53.4784 111.293 52.1989 109.567 52.1434C105.953 52.0271 102.338 51.9108 98.7237 51.7944C96.9978 51.739 95.3122 52.9279 94.9326 54.4537C94.1369 57.6486 93.2538 60.8502 92.2831 64.0573C91.82 65.5884 92.8162 66.8775 94.5381 66.9329C98.1421 67.0493 101.746 67.167 105.35 67.2833C107.071 67.3387 108.868 66.1417 109.336 64.6091V64.6105Z" fill="url(#paint27_linear_4_2500)"/>
</g>
</g>
<defs>
<linearGradient id="paint0_linear_4_2500" x1="14.3462" y1="46.1563" x2="195.741" y2="82.5352" gradientUnits="userSpaceOnUse">
<stop stop-color="#B3D9F8"/>
<stop offset="0.18" stop-color="#4976A9"/>
<stop offset="0.26" stop-color="#4976A9"/>
<stop offset="0.83" stop-color="#4976A9"/>
<stop offset="0.85" stop-color="#4A78AC"/>
<stop offset="0.87" stop-color="#4F7FB5"/>
<stop offset="0.88" stop-color="#578CC6"/>
<stop offset="0.89" stop-color="#629EDD"/>
<stop offset="0.9" stop-color="#6CADF0"/>
<stop offset="1" stop-color="#8A9BFF"/>
</linearGradient>
<linearGradient id="paint1_linear_4_2500" x1="6.10967" y1="52.8072" x2="184.934" y2="87.883" gradientUnits="userSpaceOnUse">
<stop stop-color="#B3D9F8"/>
<stop offset="0.18" stop-color="#89CDF0"/>
<stop offset="0.2" stop-color="#81C2E7"/>
<stop offset="0.28" stop-color="#6DA7D1"/>
<stop offset="0.37" stop-color="#5D91BF"/>
<stop offset="0.47" stop-color="#5181B2"/>
<stop offset="0.58" stop-color="#4B78AB"/>
<stop offset="0.74" stop-color="#4976A9"/>
<stop offset="0.78" stop-color="#4A78AC"/>
<stop offset="0.82" stop-color="#4F7FB5"/>
<stop offset="0.85" stop-color="#578CC6"/>
<stop offset="0.88" stop-color="#629EDD"/>
<stop offset="0.9" stop-color="#6CADF0"/>
<stop offset="1" stop-color="#8A9BFF"/>
</linearGradient>
<linearGradient id="paint2_linear_4_2500" x1="13.4949" y1="49.1687" x2="175.693" y2="80.9848" gradientUnits="userSpaceOnUse">
<stop stop-color="#A6BBBE"/>
<stop offset="0.06" stop-color="#ECFCFF"/>
<stop offset="0.09" stop-color="#DEEEF1"/>
<stop offset="0.17" stop-color="#BCCCCF"/>
<stop offset="0.25" stop-color="#A1B0B3"/>
<stop offset="0.35" stop-color="#8B9A9D"/>
<stop offset="0.45" stop-color="#7C8A8D"/>
<stop offset="0.57" stop-color="#738184"/>
<stop offset="0.74" stop-color="#717F82"/>
<stop offset="0.78" stop-color="#738285"/>
<stop offset="0.81" stop-color="#7C8B8E"/>
<stop offset="0.84" stop-color="#8A9C9E"/>
<stop offset="0.87" stop-color="#9EB3B5"/>
<stop offset="0.9" stop-color="#BED8D9"/>
<stop offset="1" stop-color="#A6BBBE"/>
</linearGradient>
<linearGradient id="paint3_linear_4_2500" x1="94.9589" y1="10.3614" x2="87.9853" y2="117.404" gradientUnits="userSpaceOnUse">
<stop stop-color="#F3F8FB"/>
<stop offset="0.03" stop-color="#DCEAED"/>
<stop offset="0.06" stop-color="#C4DFE0"/>
<stop offset="0.84" stop-color="#C1DADB"/>
<stop offset="0.9" stop-color="#E7F0F1"/>
<stop offset="0.95" stop-color="white"/>
<stop offset="1" stop-color="#A6BBBE"/>
</linearGradient>
<radialGradient id="paint4_radial_4_2500" cx="0" cy="0" r="1" gradientUnits="userSpaceOnUse" gradientTransform="translate(-74.0115 6.39372) scale(243.234 244.381)">
<stop offset="0.41" stop-color="#F3F8FB"/>
<stop offset="0.47" stop-color="#DCEAED"/>
<stop offset="0.97" stop-color="#ECFCFF"/>
<stop offset="0.98" stop-color="#BED8D9"/>
<stop offset="1" stop-color="#A6BBBE"/>
</radialGradient>
<linearGradient id="paint5_linear_4_2500" x1="85.9408" y1="7.92489" x2="82.5189" y2="105.782" gradientUnits="userSpaceOnUse">
<stop stop-color="#F3F8FB"/>
<stop offset="0.03" stop-color="#DCEAED"/>
<stop offset="0.06" stop-color="#C4DFE0"/>
<stop offset="0.5" stop-color="#C1DADB"/>
<stop offset="0.75" stop-color="#E7F0F1"/>
<stop offset="0.94" stop-color="white"/>
<stop offset="1" stop-color="#A6BBBE"/>
</linearGradient>
<linearGradient id="paint6_linear_4_2500" x1="83.5943" y1="25.5184" x2="81.7664" y2="91.8058" gradientUnits="userSpaceOnUse">
<stop offset="0.05" stop-color="#BED8D9"/>
<stop offset="0.09" stop-color="#B0C7CA"/>
<stop offset="0.13" stop-color="#A8BEC0"/>
<stop offset="0.18" stop-color="#A6BBBE"/>
<stop offset="0.21" stop-color="#A2B7BA"/>
<stop offset="0.25" stop-color="#99ACAF"/>
<stop offset="0.28" stop-color="#88999C"/>
<stop offset="0.3" stop-color="#728083"/>
<stop offset="0.31" stop-color="#717F82"/>
<stop offset="0.39" stop-color="#BED8D9"/>
<stop offset="0.42" stop-color="#B2CACC"/>
<stop offset="0.46" stop-color="#A9BEC1"/>
<stop offset="0.51" stop-color="#A6BBBE"/>
<stop offset="0.55" stop-color="#A3B8BB"/>
<stop offset="0.58" stop-color="#9CB0B3"/>
<stop offset="0.6" stop-color="#8FA1A4"/>
<stop offset="0.62" stop-color="#7D8D90"/>
<stop offset="0.63" stop-color="#717F82"/>
<stop offset="0.72" stop-color="#BED8D9"/>
<stop offset="0.74" stop-color="#B6CFD0"/>
<stop offset="0.8" stop-color="#AAC0C2"/>
<stop offset="0.84" stop-color="#A6BBBE"/>
<stop offset="0.89" stop-color="#A4B8BB"/>
<stop offset="0.91" stop-color="#9DB1B4"/>
<stop offset="0.93" stop-color="#91A3A6"/>
<stop offset="0.94" stop-color="#819194"/>
<stop offset="0.95" stop-color="#717F82"/>
</linearGradient>
<radialGradient id="paint7_radial_4_2500" cx="0" cy="0" r="1" gradientUnits="userSpaceOnUse" gradientTransform="translate(36.5874 6.135) rotate(8.72028) scale(15.1412 15.2093)">
<stop offset="0.74" stop-color="#A6BEAA"/>
<stop offset="0.85" stop-color="#A6BEAA"/>
<stop offset="0.98" stop-color="#A6BEAA"/>
</radialGradient>
<radialGradient id="paint8_radial_4_2500" cx="0" cy="0" r="1" gradientUnits="userSpaceOnUse" gradientTransform="translate(63.5926 10.9792) scale(27.5744 27.7044)">
<stop offset="0.88" stop-color="#4556A9"/>
<stop offset="0.94" stop-color="#918AFF"/>
<stop offset="0.97" stop-color="#CBC7FC"/>
</radialGradient>
<radialGradient id="paint9_radial_4_2500" cx="0" cy="0" r="1" gradientUnits="userSpaceOnUse" gradientTransform="translate(48.5346 8.23473) scale(8.62289 8.66353)">
<stop stop-color="#2B54E5"/>
<stop offset="0.92" stop-color="#918AFF"/>
</radialGradient>
<radialGradient id="paint10_radial_4_2500" cx="0" cy="0" r="1" gradientUnits="userSpaceOnUse" gradientTransform="translate(44.7946 -0.120405) scale(8.62289 8.66353)">
<stop stop-color="#89A8F0"/>
<stop offset="1" stop-color="#4556A9"/>
</radialGradient>
<radialGradient id="paint11_radial_4_2500" cx="0" cy="0" r="1" gradientUnits="userSpaceOnUse" gradientTransform="translate(63.4134 6.45706) rotate(8.72028) scale(15.1412 15.2093)">
<stop offset="0.74" stop-color="#A6BEAA"/>
<stop offset="0.85" stop-color="#A6BEAA"/>
<stop offset="0.98" stop-color="#A6BEAA"/>
</radialGradient>
<radialGradient id="paint12_radial_4_2500" cx="0" cy="0" r="1" gradientUnits="userSpaceOnUse" gradientTransform="translate(90.4158 11.3078) scale(27.5744 27.7044)">
<stop offset="0.88" stop-color="#4556A9"/>
<stop offset="0.94" stop-color="#918AFF"/>
<stop offset="0.97" stop-color="#CBC7FC"/>
</radialGradient>
<radialGradient id="paint13_radial_4_2500" cx="0" cy="0" r="1" gradientUnits="userSpaceOnUse" gradientTransform="translate(75.3578 8.56199) scale(8.62289 8.66353)">
<stop stop-color="#2B54E5"/>
<stop offset="0.92" stop-color="#918AFF"/>
</radialGradient>
<radialGradient id="paint14_radial_4_2500" cx="0" cy="0" r="1" gradientUnits="userSpaceOnUse" gradientTransform="translate(71.6178 0.208208) scale(8.62289 8.66353)">
<stop stop-color="#89A8F0"/>
<stop offset="1" stop-color="#4556A9"/>
</radialGradient>
<radialGradient id="paint15_radial_4_2500" cx="0" cy="0" r="1" gradientUnits="userSpaceOnUse" gradientTransform="translate(90.2395 6.77786) rotate(8.72028) scale(15.1412 15.2093)">
<stop offset="0.74" stop-color="#A6BEAA"/>
<stop offset="0.85" stop-color="#A6BEAA"/>
<stop offset="0.98" stop-color="#A6BEAA"/>
</radialGradient>
<radialGradient id="paint16_radial_4_2500" cx="0" cy="0" r="1" gradientUnits="userSpaceOnUse" gradientTransform="translate(117.239 11.6365) scale(27.5744 27.7044)">
<stop offset="0.88" stop-color="#4556A9"/>
<stop offset="0.94" stop-color="#918AFF"/>
<stop offset="0.97" stop-color="#CBC7FC"/>
</radialGradient>
<radialGradient id="paint17_radial_4_2500" cx="0" cy="0" r="1" gradientUnits="userSpaceOnUse" gradientTransform="translate(102.181 8.89072) scale(8.62289 8.66353)">
<stop stop-color="#2B54E5"/>
<stop offset="0.92" stop-color="#918AFF"/>
</radialGradient>
<radialGradient id="paint18_radial_4_2500" cx="0" cy="0" r="1" gradientUnits="userSpaceOnUse" gradientTransform="translate(98.441 0.536943) scale(8.62289 8.66353)">
<stop stop-color="#89A8F0"/>
<stop offset="1" stop-color="#4556A9"/>
</radialGradient>
<radialGradient id="paint19_radial_4_2500" cx="0" cy="0" r="1" gradientUnits="userSpaceOnUse" gradientTransform="translate(117.066 7.17193) rotate(8.72028) scale(15.1412 15.2093)">
<stop offset="0.74" stop-color="#A6BEAA"/>
<stop offset="0.85" stop-color="#A6BEAA"/>
<stop offset="0.98" stop-color="#A6BEAA"/>
</radialGradient>
<radialGradient id="paint20_radial_4_2500" cx="0" cy="0" r="1" gradientUnits="userSpaceOnUse" gradientTransform="translate(144.062 12.0369) scale(27.5744 27.7044)">
<stop offset="0.88" stop-color="#4556A9"/>
<stop offset="0.94" stop-color="#918AFF"/>
<stop offset="0.97" stop-color="#CBC7FC"/>
</radialGradient>
<radialGradient id="paint21_radial_4_2500" cx="0" cy="0" r="1" gradientUnits="userSpaceOnUse" gradientTransform="translate(129.004 9.29247) scale(8.62289 8.66353)">
<stop stop-color="#2B54E5"/>
<stop offset="0.92" stop-color="#918AFF"/>
</radialGradient>
<radialGradient id="paint22_radial_4_2500" cx="0" cy="0" r="1" gradientUnits="userSpaceOnUse" gradientTransform="translate(125.263 0.937334) scale(8.62289 8.66353)">
<stop stop-color="#89A8F0"/>
<stop offset="1" stop-color="#4556A9"/>
</radialGradient>
<radialGradient id="paint23_radial_4_2500" cx="0" cy="0" r="1" gradientUnits="userSpaceOnUse" gradientTransform="translate(143.891 7.59114) rotate(8.72028) scale(15.1412 15.2093)">
<stop offset="0.74" stop-color="#A6BEAA"/>
<stop offset="0.85" stop-color="#A6BEAA"/>
<stop offset="0.98" stop-color="#A6BEAA"/>
</radialGradient>
<radialGradient id="paint24_radial_4_2500" cx="0" cy="0" r="1" gradientUnits="userSpaceOnUse" gradientTransform="translate(170.884 12.463) scale(27.5744 27.7044)">
<stop offset="0.88" stop-color="#4556A9"/>
<stop offset="0.94" stop-color="#918AFF"/>
<stop offset="0.97" stop-color="#CBC7FC"/>
</radialGradient>
<radialGradient id="paint25_radial_4_2500" cx="0" cy="0" r="1" gradientUnits="userSpaceOnUse" gradientTransform="translate(155.826 9.71714) scale(8.62289 8.66353)">
<stop stop-color="#2B54E5"/>
<stop offset="0.92" stop-color="#918AFF"/>
</radialGradient>
<radialGradient id="paint26_radial_4_2500" cx="0" cy="0" r="1" gradientUnits="userSpaceOnUse" gradientTransform="translate(152.086 1.36336) scale(8.62289 8.66353)">
<stop stop-color="#89A8F0"/>
<stop offset="1" stop-color="#4556A9"/>
</radialGradient>
<linearGradient id="paint27_linear_4_2500" x1="78.6642" y1="7.59892" x2="76.9696" y2="66.3752" gradientUnits="userSpaceOnUse">
<stop offset="0.36" stop-color="#F29E50"/>
<stop offset="0.39" stop-color="#F68C47"/>
<stop offset="0.44" stop-color="#F97D41"/>
<stop offset="0.48" stop-color="#FB793F"/>
<stop offset="0.53" stop-color="#F9753C"/>
<stop offset="0.57" stop-color="#F66A35"/>
<stop offset="0.61" stop-color="#F0592A"/>
<stop offset="0.62" stop-color="#F05C2B"/>
<stop offset="0.7" stop-color="#F18944"/>
<stop offset="0.74" stop-color="#F29A4D"/>
<stop offset="0.78" stop-color="#F78845"/>
<stop offset="0.81" stop-color="#FA7C40"/>
<stop offset="0.85" stop-color="#FB793F"/>
<stop offset="0.9" stop-color="#F9733B"/>
<stop offset="0.97" stop-color="#F46432"/>
<stop offset="1" stop-color="#F15B2C"/>
</linearGradient>
<clipPath id="clip0_4_2500">
<rect width="205" height="134" fill="white"/>
</clipPath>
</defs>
</svg>
