<svg width="109" height="49" viewBox="0 0 109 49" fill="none" xmlns="http://www.w3.org/2000/svg">
<g id="Layer_1" clip-path="url(#clip0_1_368)">
<path id="Vector" d="M13.6138 21.6036L11.9999 36.5425C11.9763 36.765 11.7845 36.9349 11.5573 36.9349H4.43462C4.20742 36.9349 4.01859 36.765 3.99498 36.5425L-9.28477e-05 0.989079C-0.026648 0.728432 0.179892 0.5 0.442493 0.5H5.15751C5.3847 0.5 5.57354 0.66986 5.60009 0.892434L8.18774 24.9129C8.2438 25.4401 9.0198 25.4372 9.06996 24.9071L11.395 0.898292C11.4157 0.672788 11.6075 0.5 11.8376 0.5H16.591C16.8182 0.5 17.01 0.672788 17.0336 0.898292L19.4442 25.0887C19.4973 25.6158 20.2733 25.6187 20.3264 25.0887L22.8226 0.895363C22.8462 0.66986 23.035 0.5 23.2652 0.5H27.4019C27.6674 0.5 27.871 0.728432 27.8415 0.989079L23.8494 36.5425C23.8258 36.765 23.634 36.9349 23.4097 36.9349H16.5497C16.3225 36.9349 16.1336 36.765 16.1071 36.5425L14.4931 21.6036C14.4371 21.0794 13.667 21.0794 13.6109 21.6036H13.6138Z" fill="url(#paint0_linear_1_368)"/>
<path id="Vector_2" d="M48.1445 36.9349H43.2259C43.0075 36.9349 42.8187 36.7768 42.7862 36.56L41.904 30.6999C41.8716 30.4832 41.6857 30.325 41.4644 30.325H35.1502C34.9318 30.325 34.743 30.4832 34.7105 30.6999L33.8283 36.56C33.7958 36.7768 33.61 36.9349 33.3887 36.9349H28.9953C28.7209 36.9349 28.5143 36.6918 28.5586 36.4253L34.2886 0.871934C34.324 0.658145 34.5099 0.5 34.7253 0.5H42.4115C42.6299 0.5 42.8157 0.658145 42.8482 0.871934L48.5782 36.4253C48.6225 36.6918 48.413 36.9349 48.1415 36.9349H48.1445ZM36.0176 25.3786H40.5467C40.8182 25.3786 41.0247 25.1384 40.9864 24.8719L38.7233 9.85985C38.6466 9.35906 37.9207 9.35906 37.847 9.85985L35.5839 24.8719C35.5426 25.1384 35.7521 25.3786 36.0235 25.3786H36.0176Z" fill="url(#paint1_linear_1_368)"/>
<path id="Vector_3" d="M59.1737 27.2588L63.0832 0.874863C63.1157 0.658145 63.3015 0.5 63.5228 0.5H67.9192C68.1906 0.5 68.4001 0.740146 68.3588 1.00665L62.8324 36.56C62.8 36.7738 62.6141 36.932 62.3928 36.932H54.5531C54.3348 36.932 54.1489 36.7738 54.1135 36.56L48.5871 1.00665C48.5457 0.740146 48.7523 0.5 49.0267 0.5H53.9482C54.1695 0.5 54.3554 0.661074 54.3879 0.874863L58.2974 27.2558C58.3711 27.7566 59.0999 27.7566 59.1767 27.2558L59.1737 27.2588Z" fill="url(#paint2_linear_1_368)"/>
<path id="Vector_4" d="M77.3227 15.8547H84.3539C84.5988 15.8547 84.7965 16.0509 84.7965 16.294V20.6196C84.7965 20.8627 84.5988 21.0589 84.3539 21.0589H77.3227C77.0778 21.0589 76.8801 21.2551 76.8801 21.4982V31.2885C76.8801 31.5316 77.0778 31.7278 77.3227 31.7278H86.3986C86.6435 31.7278 86.8412 31.924 86.8412 32.1671V36.4927C86.8412 36.7358 86.6435 36.932 86.3986 36.932H71.5543C71.3094 36.932 71.1117 36.7358 71.1117 36.4927V0.939292C71.1117 0.696217 71.3094 0.5 71.5543 0.5H86.3986C86.6435 0.5 86.8412 0.696217 86.8412 0.939292V5.26486C86.8412 5.50793 86.6435 5.70415 86.3986 5.70415H77.3227C77.0778 5.70415 76.8801 5.90037 76.8801 6.14344V15.4125C76.8801 15.6556 77.0778 15.8518 77.3227 15.8518V15.8547Z" fill="url(#paint3_linear_1_368)"/>
<path id="Vector_5" d="M108.557 36.9349H103.639C103.42 36.9349 103.232 36.7768 103.199 36.56L102.317 30.6999C102.284 30.4832 102.099 30.325 101.877 30.325H95.5631C95.3448 30.325 95.1559 30.4832 95.1235 30.6999L94.2412 36.56C94.2088 36.7768 94.0229 36.9349 93.8016 36.9349H89.4082C89.1338 36.9349 88.9273 36.6918 88.9715 36.4253L94.7015 0.871934C94.7369 0.658145 94.9228 0.5 95.1382 0.5H102.824C103.043 0.5 103.229 0.658145 103.261 0.871934L108.991 36.4253C109.035 36.6918 108.826 36.9349 108.554 36.9349H108.557ZM96.4306 25.3786H100.96C101.231 25.3786 101.438 25.1384 101.399 24.8719L99.1362 9.85985C99.0595 9.35906 98.3337 9.35906 98.2599 9.85985L95.9968 24.8719C95.9555 25.1384 96.165 25.3786 96.4365 25.3786H96.4306Z" fill="url(#paint4_linear_1_368)"/>
<path id="Vector_6" d="M106.675 42.593C106.581 42.3411 106.395 42.142 106.153 42.0307C105.908 41.9194 105.636 41.9077 105.383 42.0014C104.689 42.2562 103.89 42.5696 103.111 42.8771C98.5579 44.6665 91.6772 47.3667 87.8916 45.5011C86.6199 44.8744 85.779 43.7674 85.3158 42.1156C85.242 41.8462 85.0532 41.6207 84.8053 41.4948C84.5545 41.3688 84.2624 41.3513 83.9998 41.4479C83.1501 41.7584 82.1233 42.1771 81.1319 42.5813C76.3165 44.5435 69.0404 47.5072 65.0749 45.5861C63.7618 44.9505 62.8914 43.8142 62.4105 42.1127C62.3338 41.8462 62.1479 41.6207 61.9 41.4948C61.6492 41.3688 61.3571 41.3513 61.0945 41.4479C60.2625 41.7525 59.2858 42.1508 58.2236 42.5813C53.4083 44.5435 46.1322 47.5072 42.1666 45.5861C40.8536 44.9505 39.9832 43.8142 39.5023 42.1127C39.3547 41.5885 38.8207 41.2839 38.2896 41.4128C36.354 41.8931 34.4243 42.7834 32.3737 43.7293C28.6737 45.4367 24.8497 47.2027 21.2235 46.2069C19.2613 45.6681 17.4054 43.6063 16.5114 41.9194C16.2754 41.4743 15.7383 41.2722 15.2663 41.4509C13.9651 41.937 12.6727 42.4759 11.4099 43.0001C8.72779 44.113 5.95426 45.2668 3.04794 45.9346C2.78534 45.9961 2.56405 46.1542 2.41947 46.3797C2.27784 46.6052 2.23358 46.8746 2.2926 47.1324C2.35456 47.393 2.51389 47.6156 2.74403 47.7562C2.97418 47.8967 3.24268 47.9407 3.49938 47.8792C6.57387 47.1734 9.42708 45.9873 12.1859 44.8422C13.1625 44.4351 14.1686 44.0192 15.1807 43.6239C16.3403 45.4455 18.326 47.4867 20.6865 48.1339C21.5716 48.377 22.5011 48.5 23.4511 48.5C26.8148 48.5 30.0722 46.9976 33.2234 45.5421C34.8551 44.7895 36.4041 44.0749 37.8853 43.6063C38.5817 45.3576 39.7235 46.6286 41.2844 47.3842C46.0614 49.6978 53.5322 46.655 58.9878 44.4322C59.6369 44.1686 60.2566 43.9167 60.829 43.6912C61.5283 45.4016 62.6583 46.6404 64.1956 47.3842C68.9726 49.6978 76.4434 46.655 81.899 44.4322L81.9344 44.4175C82.5688 44.1598 83.1766 43.9109 83.7372 43.6912C84.4158 45.3488 85.5135 46.5584 87.0005 47.2934C91.5857 49.5543 98.676 46.7721 103.857 44.7368L103.925 44.7104C104.704 44.4058 105.439 44.1159 106.085 43.8787C106.336 43.785 106.536 43.6005 106.651 43.3603C106.763 43.1172 106.775 42.8478 106.681 42.5959L106.675 42.593Z" fill="url(#paint5_linear_1_368)"/>
</g>
<defs>
<linearGradient id="paint0_linear_1_368" x1="104.857" y1="32.5478" x2="-9.80186" y2="14.4507" gradientUnits="userSpaceOnUse">
<stop stop-color="#05303F"/>
<stop offset="0.22" stop-color="#194C66"/>
<stop offset="0.59" stop-color="#3879A2"/>
<stop offset="0.86" stop-color="#4B94C7"/>
<stop offset="1" stop-color="#539FD6"/>
</linearGradient>
<linearGradient id="paint1_linear_1_368" x1="105.332" y1="29.546" x2="-9.32671" y2="11.4459" gradientUnits="userSpaceOnUse">
<stop stop-color="#05303F"/>
<stop offset="0.22" stop-color="#194C66"/>
<stop offset="0.59" stop-color="#3879A2"/>
<stop offset="0.86" stop-color="#4B94C7"/>
<stop offset="1" stop-color="#539FD6"/>
</linearGradient>
<linearGradient id="paint2_linear_1_368" x1="105.943" y1="25.6685" x2="-8.71595" y2="7.57135" gradientUnits="userSpaceOnUse">
<stop stop-color="#05303F"/>
<stop offset="0.22" stop-color="#194C66"/>
<stop offset="0.59" stop-color="#3879A2"/>
<stop offset="0.86" stop-color="#4B94C7"/>
<stop offset="1" stop-color="#539FD6"/>
</linearGradient>
<linearGradient id="paint3_linear_1_368" x1="106.368" y1="22.9771" x2="-8.29109" y2="4.87995" gradientUnits="userSpaceOnUse">
<stop stop-color="#05303F"/>
<stop offset="0.22" stop-color="#194C66"/>
<stop offset="0.59" stop-color="#3879A2"/>
<stop offset="0.86" stop-color="#4B94C7"/>
<stop offset="1" stop-color="#539FD6"/>
</linearGradient>
<linearGradient id="paint4_linear_1_368" x1="106.778" y1="20.3765" x2="-7.87799" y2="2.27637" gradientUnits="userSpaceOnUse">
<stop stop-color="#05303F"/>
<stop offset="0.22" stop-color="#194C66"/>
<stop offset="0.59" stop-color="#3879A2"/>
<stop offset="0.86" stop-color="#4B94C7"/>
<stop offset="1" stop-color="#539FD6"/>
</linearGradient>
<linearGradient id="paint5_linear_1_368" x1="105.973" y1="48.4825" x2="-3.75105" y2="40.7808" gradientUnits="userSpaceOnUse">
<stop stop-color="#05303F"/>
<stop offset="0.22" stop-color="#194C66"/>
<stop offset="0.59" stop-color="#3879A2"/>
<stop offset="0.86" stop-color="#4B94C7"/>
<stop offset="1" stop-color="#539FD6"/>
</linearGradient>
<clipPath id="clip0_1_368">
<rect width="109" height="48" fill="white" transform="translate(0 0.5)"/>
</clipPath>
</defs>
</svg>
