<svg width="189" height="189" viewBox="0 0 189 189" fill="none" xmlns="http://www.w3.org/2000/svg">
<g id="_71_Edit_Tools_Design_Development_Web_Laptop">
<path id="Vector" d="M173.535 18.8245H15.4651C8.07048 18.8245 2.00769 24.8873 2.00769 32.2819V135.866C2.00769 143.261 8.07048 149.324 15.4651 149.324H173.515C180.91 149.324 186.972 143.261 186.972 135.866V32.2819C186.972 24.8873 180.93 18.8245 173.515 18.8245H173.535Z" fill="white"/>
<path id="Vector_2" d="M174.549 124.098H14.7892V31.606H174.529V124.078L174.549 124.098Z" fill="#A8C5E6"/>
<path id="Vector_3" d="M129.465 80.0288L128.114 92.1345V92.4724H116.008L114.318 80.3667C116.326 82.0564 119.029 83.0503 121.713 83.0503C124.734 82.7123 127.438 81.6986 129.446 80.0288H129.465Z" fill="white"/>
<path id="Vector_4" d="M140.577 94.5C141.929 95.8517 142.605 97.5214 142.605 99.549C142.605 103.584 139.245 106.944 135.21 106.944H56.1553C54.1476 106.944 52.1201 106.268 51.1063 104.916C49.7546 103.564 49.0986 101.895 49.0986 99.867C49.0986 95.8318 52.458 92.4724 56.4932 92.4724H135.866C137.556 92.4724 139.225 93.1483 140.577 94.4801V94.5Z" fill="white"/>
<path id="Vector_5" d="M29.2604 162.085C36.1382 162.085 41.704 167.651 41.704 174.529C41.704 181.407 36.1382 186.972 29.2604 186.972C22.3826 186.972 16.8168 181.407 16.8168 174.529C16.8168 167.651 22.3826 162.085 29.2604 162.085Z" fill="white"/>
<path id="Vector_6" d="M127.12 176.556C130.141 176.556 132.507 178.902 132.507 181.943C132.507 184.985 130.161 187.33 127.12 187.33H61.8802C58.8588 187.33 56.4933 184.985 56.4933 181.943C56.4933 178.902 58.8389 176.556 61.8802 176.556H127.12Z" fill="#A8C5E6"/>
<path id="Vector_7" d="M126.106 149.323V151.669C126.106 156.042 122.409 159.74 118.036 159.74H71.2825C66.9093 159.74 63.212 156.042 63.212 151.669V149.323H126.106Z" fill="#A8C5E6"/>
<path id="Vector_8" d="M109.309 159.74H79.7108V176.556H109.309V159.74Z" fill="white"/>
<path id="Vector_9" d="M78.0212 69.2749H69.2748V92.4725H78.0212V69.2749Z" fill="white"/>
<path id="Vector_10" d="M69.2748 69.2749H60.5285V92.4725H69.2748V69.2749Z" fill="white"/>
<path id="Vector_11" d="M69.2748 48.4229L78.0211 69.2749H69.2748H60.5285L69.2748 48.4229Z" fill="white"/>
<path id="Vector_12" d="M102.233 84.0641V92.4725H87.4433V48.4229H102.233V58.8588V71.3024V84.0641Z" fill="white"/>
<path id="Vector_13" d="M133.183 71.3024C133.183 74.6617 131.831 77.6832 129.485 79.7107C127.478 81.4004 124.774 82.7322 122.091 82.7322C119.069 82.7322 116.704 81.7184 114.696 80.0487C112.35 78.041 110.661 74.9997 110.661 71.6403C110.661 65.9154 121.753 56.8511 121.753 48.1047C125.45 54.1675 133.183 65.5974 133.183 71.3024Z" fill="white"/>
<path id="Vector_14" d="M179.578 166.12C181.248 166.12 182.599 167.472 182.599 169.142C182.599 170.812 181.248 172.163 179.578 172.163C177.908 172.163 176.556 170.812 176.556 169.142C176.556 167.472 177.908 166.12 179.578 166.12Z" fill="#457FBE"/>
<path id="Vector_15" d="M175.543 0C177.212 0 178.564 1.3517 178.564 3.02146C178.564 4.69121 177.212 6.04291 175.543 6.04291C173.873 6.04291 172.521 4.69121 172.521 3.02146C172.521 1.3517 173.873 0 175.543 0Z" fill="#457FBE"/>
<path id="Vector_16" d="M152.345 168.148C154.015 168.148 155.366 169.5 155.366 171.169C155.366 172.839 154.015 174.191 152.345 174.191C150.675 174.191 149.323 172.839 149.323 171.169C149.323 169.5 150.675 168.148 152.345 168.148Z" fill="#457FBE"/>
<path id="Vector_17" d="M97.5214 133.501C98.1973 134.176 98.8732 135.19 98.8732 136.522C98.8732 137.854 98.5352 138.868 97.5214 139.544C96.8456 140.219 95.8318 140.895 94.5 140.895C92.1544 140.895 90.1268 138.868 90.1268 136.522C90.1268 135.508 90.4648 134.176 91.4785 133.501C92.1544 132.825 93.1682 132.149 94.5 132.149C95.8318 132.149 96.8456 132.825 97.5214 133.501Z" fill="#457FBE"/>
<path id="Vector_18" d="M89.1131 4.37305C90.7828 4.37305 92.1345 5.72475 92.1345 7.3945C92.1345 9.06425 90.7828 10.416 89.1131 10.416C87.4433 10.416 86.0916 9.06425 86.0916 7.3945C86.0916 5.72475 87.4433 4.37305 89.1131 4.37305Z" fill="#457FBE"/>
<path id="Vector_19" d="M51.4442 155.704C53.114 155.704 54.4657 157.056 54.4657 158.726C54.4657 160.396 53.114 161.747 51.4442 161.747C49.7745 161.747 48.4228 160.396 48.4228 158.726C48.4228 157.056 49.7745 155.704 51.4442 155.704Z" fill="#457FBE"/>
<path id="Vector_20" d="M24.2114 0C25.8811 0 27.2329 1.3517 27.2329 3.02146C27.2329 4.69121 25.8811 6.04291 24.2114 6.04291C22.5416 6.04291 21.1899 4.69121 21.1899 3.02146C21.1899 1.3517 22.5416 0 24.2114 0Z" fill="#457FBE"/>
<path id="Vector_21" d="M5.04898 161.767C6.71873 161.767 8.07044 163.119 8.07044 164.789C8.07044 166.458 6.71873 167.81 5.04898 167.81C3.37923 167.81 2.02753 166.458 2.02753 164.789C2.02753 163.119 3.37923 161.767 5.04898 161.767Z" fill="#457FBE"/>
<path id="Vector_22" d="M79.7108 161.767H70.9645C65.2396 161.767 60.5484 157.056 60.5484 151.351V149.006C60.5484 147.992 61.5622 146.978 62.5561 146.978C63.55 146.978 64.5638 147.992 64.5638 149.006V151.351C64.5638 154.711 67.2473 157.414 70.6265 157.414H79.3729C80.3866 157.414 81.3805 158.428 81.3805 159.422C81.3805 160.416 81.0426 161.767 79.6909 161.767H79.7108Z" fill="#457FBE"/>
<path id="Vector_23" d="M117.698 161.767H108.951C107.938 161.767 106.944 160.753 106.944 159.74C106.944 158.726 107.957 157.732 108.951 157.732H117.698C121.057 157.732 123.741 155.048 123.741 151.669V149.323C123.741 148.31 124.754 147.296 125.768 147.296C126.782 147.296 127.776 148.31 127.776 149.323V151.669C128.114 157.056 123.403 161.767 117.698 161.767Z" fill="#457FBE"/>
<path id="Vector_24" d="M109.289 178.564C108.275 178.564 107.282 177.55 107.282 176.536V161.747H82.0563V176.536C82.0563 177.55 81.0426 178.564 80.0288 178.564C79.015 178.564 78.0211 177.55 78.0211 176.536V159.72C78.0211 158.706 79.0349 157.712 80.0288 157.712H109.627C110.641 157.712 111.635 158.726 111.635 159.72V176.536C111.297 177.55 110.283 178.564 109.289 178.564Z" fill="#457FBE"/>
<path id="Vector_25" d="M127.12 189H61.8802C57.845 189 54.4856 185.641 54.4856 181.605C54.4856 179.598 55.1614 177.908 56.5132 176.556C57.8649 175.205 59.8725 174.549 61.5622 174.549H126.802C130.837 174.549 134.196 177.908 134.196 181.943C134.196 183.951 133.521 185.641 132.189 186.992C130.837 188.344 129.167 189 127.14 189H127.12ZM61.8802 178.584C60.8664 178.584 60.1906 178.922 59.5346 179.598C58.8588 180.273 58.5208 180.949 58.5208 181.943C58.5208 183.633 59.8725 184.965 61.5423 184.965H126.782C127.796 184.965 128.472 184.627 129.147 183.951C129.823 183.275 130.161 182.599 130.161 181.605C130.161 179.916 128.809 178.584 127.14 178.584H61.8802Z" fill="#457FBE"/>
<path id="Vector_26" d="M29.2604 189C21.19 189 14.4712 182.281 14.4712 174.211C14.4712 166.14 21.19 159.422 29.2604 159.422C37.3309 159.422 44.0497 166.14 44.0497 174.211C44.0497 182.281 37.3309 189 29.2604 189ZM29.2604 163.775C23.5356 163.775 18.8443 168.486 18.8443 174.211C18.8443 179.936 23.5554 184.627 29.2604 184.627C34.9654 184.627 39.6964 179.916 39.6964 174.211C39.6964 168.506 34.9853 163.775 29.2604 163.775Z" fill="#457FBE"/>
<path id="Vector_27" d="M174.549 126.106H14.7892C13.7755 126.106 12.7816 125.092 12.7816 124.098V31.6061C12.7816 30.5923 13.7953 29.5984 14.7892 29.5984H174.529C175.543 29.5984 176.536 30.6122 176.536 31.6061V124.079C176.536 125.092 175.523 126.086 174.529 126.086L174.549 126.106ZM16.8168 121.733H172.521V33.6336H16.8168V121.733Z" fill="#457FBE"/>
<path id="Vector_28" d="M173.535 151.331H15.4651C6.71876 151.331 0 144.275 0 135.866V32.282C0 23.5357 7.05669 16.8169 15.4651 16.8169H173.515C182.261 16.8169 188.98 23.8736 188.98 32.282V135.866C188.98 144.275 182.261 151.331 173.515 151.331H173.535ZM15.4651 20.8521C9.08425 20.8521 4.03523 25.9011 4.03523 32.282V135.866C4.03523 142.247 9.08425 147.296 15.4651 147.296H173.515C179.896 147.296 184.945 142.247 184.945 135.866V32.282C184.945 25.9011 179.896 20.8521 173.515 20.8521H15.4651Z" fill="#457FBE"/>
<path id="Vector_29" d="M87.4433 94.5001H78.0212C77.0074 94.5001 76.0135 93.4863 76.0135 92.4924C76.0135 91.4985 77.0273 90.4648 78.0212 90.4648H87.4433C88.4571 90.4648 89.451 91.4786 89.451 92.4924C89.451 93.5062 88.4372 94.5001 87.4433 94.5001Z" fill="#457FBE"/>
<path id="Vector_30" d="M135.528 109.289H56.1553C53.4718 109.289 51.1063 108.276 49.4366 106.606C47.747 104.916 46.7531 102.571 46.7531 99.887C46.7531 94.5001 51.1262 90.4648 56.1752 90.4648H60.5484C61.5622 90.4648 62.5561 91.4786 62.5561 92.4924C62.5561 93.5062 61.5423 94.5001 60.5484 94.5001H56.1752C53.1538 94.5001 50.7883 96.8457 50.7883 99.887C50.7883 101.239 51.4641 102.571 52.4779 103.584C53.4917 104.598 54.8235 105.274 56.1752 105.274H135.548C138.57 105.274 140.935 102.928 140.935 99.887C140.935 98.5353 140.259 97.2035 139.245 96.1897C138.232 95.1759 136.9 94.5001 135.548 94.5001H102.252C101.239 94.5001 100.245 93.4863 100.245 92.4924C100.245 91.4985 101.259 90.4648 102.252 90.4648H135.548C138.232 90.4648 140.597 91.4786 142.267 93.1484C143.956 94.838 144.95 97.1836 144.95 99.8671C144.95 104.916 140.577 109.289 135.528 109.289Z" fill="#457FBE"/>
<path id="Vector_31" d="M78.0212 94.5H60.1906C59.1768 94.5 58.1829 93.4862 58.1829 92.4923V68.6188L66.9292 47.4289C67.2672 46.753 67.943 46.0771 68.9568 46.0771C69.9706 46.0771 70.6464 46.753 70.9645 47.4289L79.7108 68.6188V92.4923C80.3866 93.506 79.3729 94.5 78.0212 94.5ZM62.5561 90.4647H76.0135V69.9506L69.2947 53.8097L62.576 69.9506V90.4647H62.5561Z" fill="#457FBE"/>
<path id="Vector_32" d="M78.0212 71.3023H60.1906C59.1768 71.3023 58.1829 70.2885 58.1829 69.2748C58.1829 68.261 59.1967 67.2671 60.1906 67.2671H78.0212C79.0349 67.2671 80.0288 68.2809 80.0288 69.2748C80.3668 70.2885 79.353 71.3023 78.0212 71.3023Z" fill="#457FBE"/>
<path id="Vector_33" d="M69.2748 94.5001C68.261 94.5001 67.2672 93.4863 67.2672 92.4924V69.2948C67.2672 68.281 68.2809 67.2871 69.2748 67.2871C70.2687 67.2871 71.3024 68.3009 71.3024 69.2948V92.4924C71.3024 93.5062 70.2886 94.5001 69.2748 94.5001Z" fill="#457FBE"/>
<path id="Vector_34" d="M128.134 94.1621C126.782 94.1621 125.788 93.1483 126.106 91.8165L127.458 79.7108C127.458 78.697 128.472 77.7031 129.803 77.7031C130.817 77.7031 131.811 78.7169 131.811 80.0487L130.459 92.1544C130.121 93.5061 129.108 94.1621 128.114 94.1621H128.134Z" fill="#457FBE"/>
<path id="Vector_35" d="M116.028 94.5001C115.014 94.5001 114 93.8242 114 92.8104L112.311 80.7047C112.311 79.691 112.987 78.3591 114 78.3591C115.014 78.3591 116.346 79.035 116.346 80.0488L118.036 92.1545C118.373 93.1682 117.698 94.1621 116.028 94.5001C116.253 94.5001 116.253 94.5001 116.028 94.5001Z" fill="#457FBE"/>
<path id="Vector_36" d="M121.733 85.0778C118.373 85.0778 115.332 84.064 112.987 81.7184C109.965 79.3728 108.275 75.6556 108.275 71.6203C108.275 68.261 110.621 64.9016 113.324 61.1844C116.008 57.1492 119.387 52.4381 119.387 48.0649C119.387 47.0511 120.063 46.3753 120.739 46.0374C121.753 45.6994 122.747 46.0374 123.085 47.0511C123.422 47.727 123.76 48.0649 124.098 48.7408C128.471 55.4595 134.852 65.5576 135.19 71.2824C135.19 75.3177 133.501 79.015 130.817 81.3804C128.471 83.726 125.43 85.0778 121.733 85.0778ZM122.409 53.8097C121.057 57.169 118.711 60.5284 116.684 63.5698C114.656 66.5912 112.311 69.9506 112.311 71.6402C112.311 74.3238 113.662 76.6892 115.67 78.359C117.36 79.7107 119.705 80.7046 121.733 80.7046C124.078 80.7046 126.106 79.6908 127.776 78.359C129.803 76.6694 130.797 73.9858 130.797 71.3023C130.797 67.605 126.086 59.5345 122.389 53.8097H122.409Z" fill="#457FBE"/>
<path id="Vector_37" d="M102.233 94.5001H87.4433C86.4296 94.5001 85.4158 93.4863 85.4158 92.4924V48.4427C85.4158 47.429 86.4296 46.4351 87.4433 46.4351H102.233C103.246 46.4351 104.24 47.4488 104.24 48.4427V92.4924C104.24 93.5062 103.226 94.5001 102.233 94.5001ZM89.451 90.4648H99.887V50.4504H89.451V90.4648Z" fill="#457FBE"/>
<path id="Vector_38" d="M102.233 86.0916H95.8517C94.8379 86.0916 93.844 85.0779 93.844 84.084C93.844 83.0901 94.8578 82.0564 95.8517 82.0564H102.233C103.246 82.0564 104.24 83.0702 104.24 84.084C104.24 85.0977 103.226 86.0916 102.233 86.0916Z" fill="#457FBE"/>
<path id="Vector_39" d="M102.233 73.6479H95.8517C94.8379 73.6479 93.844 72.6342 93.844 71.6403C93.844 70.6464 94.8578 69.6326 95.8517 69.6326H102.233C103.246 69.6326 104.24 70.6464 104.24 71.6403C104.24 72.6342 103.226 73.6479 102.233 73.6479Z" fill="#457FBE"/>
<path id="Vector_40" d="M102.233 60.8665H95.8517C94.8379 60.8665 93.844 59.8528 93.844 58.8589C93.844 57.865 94.8578 56.8313 95.8517 56.8313H102.233C103.246 56.8313 104.24 57.8451 104.24 58.8589C104.24 59.8726 103.226 60.8665 102.233 60.8665Z" fill="#457FBE"/>
</g>
</svg>
