<svg id="visual" viewBox="0 0 900 600" width="900" height="600" xmlns="http://www.w3.org/2000/svg" xmlns:xlink="http://www.w3.org/1999/xlink" version="1.1"><path d="M0 103L25 103C50 103 100 103 150 100C200 97 250 91 300 90C350 89 400 93 450 89C500 85 550 73 600 67C650 61 700 61 750 72C800 83 850 105 875 116L900 127L900 0L875 0C850 0 800 0 750 0C700 0 650 0 600 0C550 0 500 0 450 0C400 0 350 0 300 0C250 0 200 0 150 0C100 0 50 0 25 0L0 0Z" fill="#9a1c86"></path><path d="M0 271L25 264C50 257 100 243 150 240C200 237 250 245 300 244C350 243 400 233 450 221C500 209 550 195 600 186C650 177 700 173 750 181C800 189 850 209 875 219L900 229L900 125L875 114C850 103 800 81 750 70C700 59 650 59 600 65C550 71 500 83 450 87C400 91 350 87 300 88C250 89 200 95 150 98C100 101 50 101 25 101L0 101Z" fill="#7e5dba"></path><path d="M0 451L25 434C50 417 100 383 150 389C200 395 250 441 300 445C350 449 400 411 450 397C500 383 550 393 600 385C650 377 700 351 750 346C800 341 850 357 875 365L900 373L900 227L875 217C850 207 800 187 750 179C700 171 650 175 600 184C550 193 500 207 450 219C400 231 350 241 300 242C250 243 200 235 150 238C100 241 50 255 25 262L0 269Z" fill="#5e88d4"></path><path d="M0 601L25 601C50 601 100 601 150 601C200 601 250 601 300 601C350 601 400 601 450 601C500 601 550 601 600 601C650 601 700 601 750 601C800 601 850 601 875 601L900 601L900 371L875 363C850 355 800 339 750 344C700 349 650 375 600 383C550 391 500 381 450 395C400 409 350 447 300 443C250 439 200 393 150 387C100 381 50 415 25 432L0 449Z" fill="#60abdb"></path></svg>