<svg width="187" height="198" viewBox="0 0 187 198" fill="none" xmlns="http://www.w3.org/2000/svg">
<g id="Isolation_Mode" clip-path="url(#clip0_4_2238)">
<g id="_51_Experience_Layout_User_Ux_Wire_Framing">
<path id="Vector" d="M10.4176 58.6963V184.502C10.4176 190.902 15.4674 195.966 21.8491 195.966H163.103C169.485 195.966 174.535 190.902 174.535 184.502V58.6963H10.4176Z" fill="#A8C5E6"/>
<path id="Vector_2" d="M157.755 75.5635V178.78H27.2369V75.5635H157.735H157.755Z" fill="white"/>
<path id="Vector_3" d="M150.34 2.01367C155.727 2.01367 159.763 6.39994 159.763 11.4641C159.763 16.8672 155.389 20.9145 150.34 20.9145C145.29 20.9145 140.916 16.5282 140.916 11.4641C140.916 6.061 144.952 2.01367 150.34 2.01367Z" fill="white"/>
<path id="Vector_4" d="M33.6385 10.4473C36.9984 10.4473 40.0203 13.1388 40.0203 16.8472C40.0203 20.2167 37.3364 23.2472 33.6385 23.2472C29.9407 23.2472 27.2568 20.5556 27.2568 16.8472C27.2568 13.1388 30.2787 10.4473 33.6385 10.4473Z" fill="white"/>
<path id="Vector_5" d="M144.972 88.3633V122.098L124.117 105.23L144.972 88.3633Z" fill="#A8C5E6"/>
<path id="Vector_6" d="M124.117 105.23L102.924 122.098V88.3633L124.117 105.23Z" fill="#A8C5E6"/>
<path id="Vector_7" d="M144.972 122.098H102.924L124.117 105.23L144.972 122.098Z" fill="white"/>
<path id="Vector_8" d="M144.972 88.3633L124.117 105.23L102.924 88.3633H144.972Z" fill="white"/>
<path id="Vector_9" d="M92.4861 122.098H40.0203L66.2631 105.23L92.4861 122.098Z" fill="white"/>
<path id="Vector_10" d="M92.4861 88.3633L66.2631 105.23L40.0203 88.3633H92.4861Z" fill="white"/>
<path id="Vector_11" d="M92.4861 88.3633V122.098L66.2631 105.23L92.4861 88.3633Z" fill="#A8C5E6"/>
<path id="Vector_12" d="M66.2631 105.23L40.0203 122.098V88.3633L66.2631 105.23Z" fill="#A8C5E6"/>
<path id="Vector_13" d="M174.555 46.2153H77.6947V59.0352H174.555V46.2153Z" fill="white"/>
<path id="Vector_14" d="M174.555 44.8596V46.2154H77.6947V33.3955H163.123C169.505 33.3955 174.555 38.4597 174.555 44.8596Z" fill="white"/>
<path id="Vector_15" d="M77.6947 58.6963H10.4176V44.8596C10.4176 38.4597 15.4674 33.3955 21.8491 33.3955H77.6748V58.6963H77.6947Z" fill="white"/>
<path id="Vector_16" d="M183.978 29.3481C185.648 29.3481 187 30.7039 187 32.3787C187 34.0534 185.648 35.4092 183.978 35.4092C182.308 35.4092 180.956 34.0534 180.956 32.3787C180.956 30.7039 182.308 29.3481 183.978 29.3481Z" fill="#457FBE"/>
<path id="Vector_17" d="M120.737 12.481C122.407 12.481 123.759 13.8367 123.759 15.5115C123.759 17.1862 122.407 18.542 120.737 18.542C119.067 18.542 117.715 17.1862 117.715 15.5115C117.715 13.8367 119.067 12.481 120.737 12.481Z" fill="#457FBE"/>
<path id="Vector_18" d="M83.0824 20.9146C84.7524 20.9146 86.1043 22.2703 86.1043 23.9451C86.1043 25.6198 84.7524 26.9756 83.0824 26.9756C81.4124 26.9756 80.0605 25.6198 80.0605 23.9451C80.0605 22.2703 81.4124 20.9146 83.0824 20.9146Z" fill="#457FBE"/>
<path id="Vector_19" d="M61.8893 8.43359C63.5593 8.43359 64.9112 9.78935 64.9112 11.4641C64.9112 13.1389 63.5593 14.4946 61.8893 14.4946C60.2193 14.4946 58.8674 13.1389 58.8674 11.4641C58.8674 9.78935 60.2193 8.43359 61.8893 8.43359Z" fill="#457FBE"/>
<path id="Vector_20" d="M52.4658 41.8291C54.8117 41.8291 56.8396 43.8627 56.8396 46.2154C56.8396 48.568 54.8117 50.6016 52.4658 50.6016C50.1198 50.6016 48.092 48.568 48.092 46.2154C48.092 43.8627 50.1198 41.8291 52.4658 41.8291Z" fill="#457FBE"/>
<path id="Vector_21" d="M40.0203 41.8291C42.3861 41.8291 44.3941 43.8627 44.3941 46.2154C44.3941 48.568 42.3861 50.6016 40.0203 50.6016C37.6545 50.6016 35.6465 48.568 35.6465 46.2154C35.6465 43.8627 37.6545 41.8291 40.0203 41.8291Z" fill="#457FBE"/>
<path id="Vector_22" d="M27.2369 41.8291C29.5828 41.8291 31.6107 43.8627 31.6107 46.2154C31.6107 48.568 29.5828 50.6016 27.2369 50.6016C24.8909 50.6016 22.8631 48.568 22.8631 46.2154C22.8631 43.8627 24.871 41.8291 27.2369 41.8291Z" fill="#457FBE"/>
<path id="Vector_23" d="M3.0219 29.3481C4.6919 29.3481 6.0438 30.7039 6.0438 32.3787C6.0438 34.0534 4.6919 35.4092 3.0219 35.4092C1.3519 35.4092 0 34.0534 0 32.3787C0 30.7039 1.3519 29.3481 3.0219 29.3481Z" fill="#457FBE"/>
<path id="Vector_24" d="M174.555 61.0488H10.4176C9.40368 61.0488 8.38975 60.032 8.38975 59.0152C8.38975 57.9983 9.40368 57.0015 10.4176 57.0015H174.555C175.568 57.0015 176.582 58.0183 176.582 59.0152C176.582 60.012 175.568 61.0488 174.555 61.0488Z" fill="#457FBE"/>
<path id="Vector_25" d="M174.555 48.229H77.6947C76.6807 48.229 75.6867 47.2122 75.6867 46.1953C75.6867 45.1785 76.7006 44.1816 77.6947 44.1816H174.555C175.568 44.1816 176.582 45.1985 176.582 46.1953C176.582 47.1922 175.568 48.229 174.555 48.229Z" fill="#457FBE"/>
<path id="Vector_26" d="M33.6385 24.9619C28.9268 24.9619 25.2289 21.2535 25.2289 16.5283C25.2289 11.8031 28.9268 8.09473 33.6385 8.09473C38.3503 8.09473 42.0482 11.8031 42.0482 16.5283C42.0482 21.2535 38.3503 24.9619 33.6385 24.9619ZM33.6385 12.481C31.2926 12.481 29.2647 14.5146 29.2647 16.8673C29.2647 19.2199 31.2727 21.2535 33.6385 21.2535C36.0044 21.2535 38.0123 19.2199 38.0123 16.8673C37.6744 14.1757 35.9845 12.481 33.6385 12.481Z" fill="#457FBE"/>
<path id="Vector_27" d="M150.34 22.9282C143.958 22.9282 138.908 17.8641 138.908 11.4641C138.908 5.06414 143.958 0 150.34 0C156.721 0 161.771 5.06414 161.771 11.4641C161.771 17.8641 156.721 22.9282 150.34 22.9282ZM150.34 4.04733C146.304 4.04733 142.944 7.41678 142.944 11.4641C142.944 15.5114 146.304 18.8809 150.34 18.8809C154.375 18.8809 157.735 15.5114 157.735 11.4641C157.735 7.41678 154.375 4.04733 150.34 4.04733Z" fill="#457FBE"/>
<path id="Vector_28" d="M77.6947 61.0488C76.6807 61.0488 75.6867 60.032 75.6867 59.0152V33.7144C75.6867 32.6976 76.7006 31.7007 77.6947 31.7007C78.6887 31.7007 79.7225 32.7175 79.7225 33.7144V59.0152C79.7225 60.032 79.0466 61.0488 77.6947 61.0488Z" fill="#457FBE"/>
<path id="Vector_29" d="M163.123 198H21.869C14.4733 198 8.40963 191.939 8.40963 184.502V44.8596C8.40963 37.4428 14.4733 31.3618 21.869 31.3618H163.123C170.519 31.3618 176.582 37.4428 176.582 44.8596V184.502C176.582 191.919 170.519 198 163.123 198ZM21.869 35.7481C16.8193 35.7481 12.4455 39.7954 12.4455 45.1985V184.841C12.4455 189.905 16.4813 194.292 21.869 194.292H163.123C168.173 194.292 172.547 190.244 172.547 184.841V44.8596C172.547 39.7954 168.511 35.4091 163.123 35.4091H21.869V35.7481Z" fill="#457FBE"/>
<path id="Vector_30" d="M157.755 181.133H27.2369C26.2229 181.133 25.2289 180.116 25.2289 179.099V75.5435C25.2289 74.5267 26.2428 73.5298 27.2369 73.5298H157.735C158.749 73.5298 159.743 74.5466 159.743 75.5435V178.76C159.743 180.116 158.729 181.113 157.735 181.113L157.755 181.133ZM29.2647 176.747H155.389V77.9161H29.2647V176.747Z" fill="#457FBE"/>
<path id="Vector_31" d="M92.4861 124.131H40.0203C39.0064 124.131 38.0123 123.114 38.0123 122.098V88.3633C38.0123 87.3465 39.0263 86.3496 40.0203 86.3496H92.4861C93.5 86.3496 94.494 87.3664 94.494 88.3633V122.098C94.494 123.114 93.4801 124.131 92.4861 124.131ZM42.0283 120.084H90.4582V90.3969H42.0283V120.084Z" fill="#457FBE"/>
<path id="Vector_32" d="M144.972 124.131H102.924C101.91 124.131 100.916 123.114 100.916 122.098V88.3633C100.916 87.3465 101.93 86.3496 102.924 86.3496H144.972C145.986 86.3496 146.98 87.3664 146.98 88.3633V122.098C146.98 123.114 146.304 124.131 144.972 124.131ZM104.951 120.084H142.964V90.3969H104.951V120.084Z" fill="#457FBE"/>
<path id="Vector_33" d="M92.4861 134.579H40.0203C39.0064 134.579 38.0123 133.562 38.0123 132.545C38.0123 131.528 39.0263 130.531 40.0203 130.531H92.4861C93.5 130.531 94.494 131.548 94.494 132.545C94.494 133.542 93.4801 134.579 92.4861 134.579Z" fill="#457FBE"/>
<path id="Vector_34" d="M144.972 134.579H102.924C101.91 134.579 100.916 133.562 100.916 132.545C100.916 131.528 101.93 130.531 102.924 130.531H144.972C145.986 130.531 146.98 131.548 146.98 132.545C146.98 133.542 146.304 134.579 144.972 134.579Z" fill="#457FBE"/>
<path id="Vector_35" d="M92.4861 145.385H40.0203C39.0064 145.385 38.0123 144.368 38.0123 143.351C38.0123 142.334 39.0263 141.337 40.0203 141.337H92.4861C93.5 141.337 94.494 142.354 94.494 143.351C94.494 144.348 93.4801 145.385 92.4861 145.385Z" fill="#457FBE"/>
<path id="Vector_36" d="M144.972 145.385H102.924C101.91 145.385 100.916 144.368 100.916 143.351C100.916 142.334 101.93 140.999 102.924 140.999H144.972C145.986 140.999 146.98 142.015 146.98 143.012C146.98 144.009 146.304 145.385 144.972 145.385Z" fill="#457FBE"/>
<path id="Vector_37" d="M92.4861 155.832H40.0203C39.0064 155.832 38.0123 154.815 38.0123 153.798C38.0123 152.782 39.0263 151.785 40.0203 151.785H92.4861C93.5 151.785 94.494 152.801 94.494 153.798C94.494 154.795 93.4801 155.832 92.4861 155.832Z" fill="#457FBE"/>
<path id="Vector_38" d="M144.972 155.832H102.924C101.91 155.832 100.916 154.815 100.916 153.798C100.916 152.782 101.93 151.785 102.924 151.785H144.972C145.986 151.785 146.98 152.801 146.98 153.798C146.98 154.795 146.304 155.832 144.972 155.832Z" fill="#457FBE"/>
<path id="Vector_39" d="M102.924 124.131C102.248 124.131 101.572 123.792 101.234 123.453C100.558 122.437 100.558 121.101 101.572 120.423L143.62 86.6885C144.634 86.0106 145.966 86.0106 146.642 87.0274C147.318 88.0443 147.318 89.3801 146.304 90.0579L104.256 123.792C103.918 124.131 103.242 124.131 102.904 124.131H102.924Z" fill="#457FBE"/>
<path id="Vector_40" d="M144.972 124.131C144.634 124.131 143.958 124.131 143.62 123.792L101.572 90.0579C100.558 89.3801 100.558 88.0443 101.234 87.0274C101.91 86.0106 103.262 86.0106 104.256 86.6885L146.304 120.423C147.318 121.101 147.318 122.456 146.642 123.453C146.304 123.792 145.628 124.131 144.972 124.131Z" fill="#457FBE"/>
<path id="Vector_41" d="M40.0203 124.131C39.3444 124.131 38.6684 123.792 38.3304 123.115C37.6545 122.098 37.9925 120.762 39.0064 120.084L91.4721 86.3497C92.4861 85.6719 93.8181 86.0108 94.494 87.0276C95.17 88.0444 94.832 89.3802 93.8181 90.0581L41.3523 123.792C40.6764 124.131 40.3384 124.131 40.0004 124.131H40.0203Z" fill="#457FBE"/>
<path id="Vector_42" d="M92.4861 124.131C92.1481 124.131 91.8101 124.131 91.4721 123.792L39.0064 90.0581C37.9925 89.3802 37.6545 88.0444 38.3304 87.0276C39.0064 86.0108 40.3583 85.6719 41.3523 86.3497L93.8181 120.084C94.832 120.762 95.17 122.098 94.494 123.115C93.8181 123.792 93.1421 124.131 92.4861 124.131Z" fill="#457FBE"/>
</g>
</g>
<defs>
<clipPath id="clip0_4_2238">
<rect width="187" height="198" fill="white"/>
</clipPath>
</defs>
</svg>
