<svg width="355" height="25" viewBox="0 0 355 25" fill="none" xmlns="http://www.w3.org/2000/svg">
<path d="M353.88 4.12992C353.56 3.26992 352.93 2.58992 352.11 2.20992C351.28 1.82992 350.36 1.78992 349.5 2.10992C347.15 2.97992 344.44 4.04992 341.8 5.09992C326.37 11.2099 303.05 20.4299 290.22 14.0599C285.91 11.9199 283.06 8.13992 281.49 2.49992C281.24 1.57992 280.6 0.809916 279.76 0.379916C278.91 -0.0500841 277.92 -0.110084 277.03 0.219916C274.15 1.27992 270.67 2.70992 267.31 4.08992C250.99 10.7899 226.33 20.9099 212.89 14.3499C208.44 12.1799 205.49 8.29992 203.86 2.48992C203.6 1.57992 202.97 0.809916 202.13 0.379916C201.28 -0.0500841 200.29 -0.110084 199.4 0.219916C196.58 1.25992 193.27 2.61992 189.67 4.08992C173.35 10.7899 148.69 20.9099 135.25 14.3499C130.8 12.1799 127.85 8.29992 126.22 2.48992C125.72 0.699916 123.91 -0.340084 122.11 0.0999159C115.55 1.73992 109.01 4.77992 102.06 8.00992C89.52 13.8399 76.56 19.8699 64.27 16.4699C57.62 14.6299 51.33 7.58992 48.3 1.82992C47.5 0.309916 45.68 -0.380084 44.08 0.229916C39.67 1.88992 35.29 3.72992 31.01 5.51992C21.92 9.31992 12.52 13.2599 2.67 15.5399C1.78 15.7499 1.03 16.2899 0.539998 17.0599C0.0599979 17.8299 -0.0900021 18.7499 0.109998 19.6299C0.319998 20.5199 0.859998 21.2799 1.64 21.7599C2.42 22.2399 3.33 22.3899 4.2 22.1799C14.62 19.7699 24.29 15.7199 33.64 11.8099C36.95 10.4199 40.36 8.99992 43.79 7.64992C47.72 13.8699 54.45 20.8399 62.45 23.0499C65.45 23.8799 68.6 24.2999 71.82 24.2999C83.22 24.2999 94.26 19.1699 104.94 14.1999C110.47 11.6299 115.72 9.18992 120.74 7.58992C123.1 13.5699 126.97 17.9099 132.26 20.4899C148.45 28.3899 173.77 17.9999 192.26 10.4099C194.46 9.50992 196.56 8.64992 198.5 7.87992C200.87 13.7199 204.7 17.9499 209.91 20.4899C226.1 28.3899 251.42 17.9999 269.91 10.4099L270.03 10.3599C272.18 9.47992 274.24 8.62992 276.14 7.87992C278.44 13.5399 282.16 17.6699 287.2 20.1799C302.74 27.8999 326.77 18.3999 344.33 11.4499L344.56 11.3599C347.2 10.3199 349.69 9.32992 351.88 8.51992C352.73 8.19992 353.41 7.56992 353.8 6.74992C354.18 5.91992 354.22 4.99992 353.9 4.13992L353.88 4.12992Z" fill="url(#paint0_linear_4_447)"/>
<defs>
<linearGradient id="paint0_linear_4_447" x1="351.49" y1="24.2299" x2="-20.4" y2="-1.68009" gradientUnits="userSpaceOnUse">
<stop stop-color="#05303F"/>
<stop offset="0.22" stop-color="#194C66"/>
<stop offset="0.59" stop-color="#3879A2"/>
<stop offset="0.86" stop-color="#4B94C7"/>
<stop offset="1" stop-color="#539FD6"/>
</linearGradient>
</defs>
</svg>
