<svg id="visual" viewBox="0 0 900 600" width="900" height="600" xmlns="http://www.w3.org/2000/svg" xmlns:xlink="http://www.w3.org/1999/xlink" version="1.1"><path d="M0 266L11.5 274.8C23 283.7 46 301.3 69 304.2C92 307 115 295 138.2 301.2C161.3 307.3 184.7 331.7 207.8 337.3C231 343 254 330 277 344.5C300 359 323 401 346 399.7C369 398.3 392 353.7 415.2 343.2C438.3 332.7 461.7 356.3 484.8 379.2C508 402 531 424 554 421C577 418 600 390 623 390.8C646 391.7 669 421.3 692.2 427.2C715.3 433 738.7 415 761.8 398.5C785 382 808 367 831 369.7C854 372.3 877 392.7 888.5 402.8L900 413L900 601L888.5 601C877 601 854 601 831 601C808 601 785 601 761.8 601C738.7 601 715.3 601 692.2 601C669 601 646 601 623 601C600 601 577 601 554 601C531 601 508 601 484.8 601C461.7 601 438.3 601 415.2 601C392 601 369 601 346 601C323 601 300 601 277 601C254 601 231 601 207.8 601C184.7 601 161.3 601 138.2 601C115 601 92 601 69 601C46 601 23 601 11.5 601L0 601Z" fill="#69C5FE" stroke-linecap="round" stroke-linejoin="miter"></path></svg>