<svg id="visual" viewBox="0 0 900 600" width="900" height="600" xmlns="http://www.w3.org/2000/svg" xmlns:xlink="http://www.w3.org/1999/xlink" version="1.1"><path d="M0 183L11.5 194C23 205 46 227 69 230.3C92 233.7 115 218.3 138.2 226C161.3 233.7 184.7 264.3 207.8 271.7C231 279 254 263 277 281.2C300 299.3 323 351.7 346 349.8C369 348 392 292 415.2 278.8C438.3 265.7 461.7 295.3 484.8 324C508 352.7 531 380.3 554 376.7C577 373 600 338 623 338.8C646 339.7 669 376.3 692.2 383.5C715.3 390.7 738.7 368.3 761.8 347.8C785 327.3 808 308.7 831 312.2C854 315.7 877 341.3 888.5 354.2L900 367L900 601L888.5 601C877 601 854 601 831 601C808 601 785 601 761.8 601C738.7 601 715.3 601 692.2 601C669 601 646 601 623 601C600 601 577 601 554 601C531 601 508 601 484.8 601C461.7 601 438.3 601 415.2 601C392 601 369 601 346 601C323 601 300 601 277 601C254 601 231 601 207.8 601C184.7 601 161.3 601 138.2 601C115 601 92 601 69 601C46 601 23 601 11.5 601L0 601Z" fill="#66C7FE" stroke-linecap="round" stroke-linejoin="miter"></path></svg>