<?xml version="1.0" encoding="utf-8"?><!-- Uploaded to: SVG Repo, www.svgrepo.com, Generator: SVG Repo Mixer Tools -->
<svg fill="#000000" width="800px" height="800px" viewBox="0 0 24 24" id="wave" xmlns="http://www.w3.org/2000/svg" class="icon multi-color"><title style="stroke-width: 2;">wave</title><path id="secondary-stroke" d="M3,11c2.25,0,2.25,2,4.5,2S9.75,11,12,11s2.26,2,4.51,2,2.25-2,4.5-2" style="fill: none; stroke: rgb(44, 169, 188); stroke-linecap: round; stroke-linejoin: round; stroke-width: 2;"></path><path id="primary-stroke" d="M21,5c-2.25,0-2.25,2-4.5,2S14.25,5,12,5,9.75,7,7.5,7,5.25,5,3,5M3,17c2.25,0,2.25,2,4.5,2S9.75,17,12,17s2.26,2,4.51,2,2.25-2,4.5-2" style="fill: none; stroke: rgb(0, 0, 0); stroke-linecap: round; stroke-linejoin: round; stroke-width: 2;"></path></svg>