<svg id="visual" viewBox="0 0 900 600" width="900" height="600" xmlns="http://www.w3.org/2000/svg" xmlns:xlink="http://www.w3.org/1999/xlink" version="1.1"><rect x="0" y="0" width="900" height="600" fill="#E7D6E7"></rect><path d="M0 404L18.8 397.5C37.7 391 75.3 378 112.8 379.8C150.3 381.7 187.7 398.3 225.2 396.3C262.7 394.3 300.3 373.7 337.8 372.8C375.3 372 412.7 391 450.2 387.8C487.7 384.7 525.3 359.3 562.8 352.2C600.3 345 637.7 356 675.2 355.3C712.7 354.7 750.3 342.3 787.8 348.8C825.3 355.3 862.7 380.7 881.3 393.3L900 406L900 601L881.3 601C862.7 601 825.3 601 787.8 601C750.3 601 712.7 601 675.2 601C637.7 601 600.3 601 562.8 601C525.3 601 487.7 601 450.2 601C412.7 601 375.3 601 337.8 601C300.3 601 262.7 601 225.2 601C187.7 601 150.3 601 112.8 601C75.3 601 37.7 601 18.8 601L0 601Z" fill="#C1BDE4" stroke-linecap="round" stroke-linejoin="miter"></path></svg>